<?xml version="1.0" standalone="no"?>
<!DOCTYPE svg PUBLIC "-//W3C//DTD SVG 1.1//EN" "http://www.w3.org/Graphics/SVG/1.1/DTD/svg11.dtd">
<svg xmlns="http://www.w3.org/2000/svg">
<defs >
<font id="B612" horiz-adv-x="1287" ><font-face
    font-family="B612"
    units-per-em="2000"
    panose-1="2 11 6 6 5 0 0 2 0 4"
    ascent="1930"
    descent="-500"
    alphabetic="0" />
<glyph unicode=" " glyph-name="space" horiz-adv-x="700" />
<glyph unicode="!" glyph-name="exclam" horiz-adv-x="700" d="M405 1500V450L195 429V1500H405ZM169 120Q169 147 179 171T208 213T249 241T300 252Q327 252 351 242T393 213T421 171T432 120Q432 93 422 69T394 26T353 -3T302 -14Q274 -14 250 -3T208 26T180
68T169 120Z" />
<glyph unicode="&quot;" glyph-name="quotedbl" horiz-adv-x="800" d="M325 1500V1400Q325 1362 318 1306T303 1196Q293 1134 281 1067H194Q182 1134 172 1196Q164 1250 157 1306T150 1400V1500H325ZM626 1500V1400Q626 1362 619 1306T604 1196Q594 1134 582 1067H495Q483
1134 473 1196Q465 1250 458 1306T451 1400V1500H626Z" />
<glyph unicode="#" glyph-name="numbersign" horiz-adv-x="1700" d="M1328 950L1278 550H1600L1580 400H1261L1211 0L1000 -20L1054 400H601L553 0L343 -20L394 400H100V550H411L462 950H100L120 1100H479L503 1285V1500L739 1520L686 1100H1139L1187 1500L1398
1520L1347 1100H1600V950H1328ZM1120 950H669L620 550H1071L1120 950Z" />
<glyph unicode="$" glyph-name="dollar" horiz-adv-x="1100" d="M892 1300Q875 1314 849 1328T791 1355T722 1376T646 1388V863Q715 831 782 794T903 707T990 590T1023 432Q1023 338 995 264T917 135T798 45T646 -5V-200H500V-17Q442 -16 385 -6T277 21T181 57T105
100L223 241Q243 228 269 212T329 182T405 158T500 148V721Q431 755 363 792T242 875T156 979T123 1116Q123 1221 154 1293T238 1412T358 1483T500 1515V1700L646 1720V1518Q752 1512 834 1482T986 1400L892 1300ZM833 400Q833 445 816 482T770 551T701 610T616
662V158Q665 167 705 186T773 234T817 305T833 400ZM313 1147Q313 1106 330 1073T376 1012T445 961T530 916V1383Q489 1376 451 1360T381 1317T332 1247T313 1147Z" />
<glyph unicode="%" glyph-name="percent" horiz-adv-x="1800" d="M590 0H400L1220 1500H1400L590 0ZM398 764Q324 764 263 793T158 873T90 993T65 1144Q65 1224 88 1292T155 1411T259 1489T398 1517Q471 1517 532 1489T637 1411T705 1293T730 1144Q730 1063 707
994T640 873T535 793T398 764ZM574 1133Q574 1178 564 1222T533 1300T479 1356T397 1378Q352 1378 320 1360T267 1310T236 1240T226 1159Q226 1113 236 1070T267 992T321 937T402 916Q447 916 479 934T533 983T564 1053T574 1133ZM1400 -17Q1326 -17 1265 12T1160
92T1092 212T1067 363Q1067 443 1090 511T1157 630T1261 708T1400 736Q1473 736 1534 708T1639 630T1707 512T1732 363Q1732 282 1709 213T1642 92T1537 12T1400 -17ZM1576 352Q1576 397 1566 441T1535 519T1481 575T1399 597Q1354 597 1322 579T1269 529T1238
459T1228 378Q1228 332 1238 289T1269 211T1323 156T1404 135Q1449 135 1481 153T1535 202T1566 272T1576 352Z" />
<glyph unicode="&amp;" glyph-name="ampersand" horiz-adv-x="1400" d="M1306 713Q1306 634 1294 558T1255 408T1188 268T1092 141L1173 157L1306 -20H1083L1011 77Q936 27 852 4T672 -20Q569 -20 470 16T293 117T168 273T120 474Q120 542 140 605T197 723T283
825T391 909Q353 966 329 1034T304 1176Q304 1258 331 1322T408 1430T525 1497T676 1520Q743 1520 798 1505T899 1465T978 1406T1038 1338L958 1220Q940 1239 915 1263T855 1308T776 1344T676 1359Q640 1359 605 1348T542 1313T497 1256T479 1175Q479 1146 489
1112Q493 1097 500 1080T527 1034T580 955T673 827T817 633T1027 355Q1069 430 1089 515T1112 692L1306 713ZM672 149Q735 149 792 164T906 217L452 828V745Q372 686 331 618T289 475Q289 402 320 343T405 242T528 176T672 149Z" />
<glyph unicode="&apos;" glyph-name="quotesingle" horiz-adv-x="400" d="M150 1500H325V1400Q325 1326 290 1241T184 1067H140Q142 1143 145 1209Q146 1237 146 1266T148 1320T149 1367T150 1400V1500Z" />
<glyph unicode="(" glyph-name="parenleft" horiz-adv-x="900" d="M200 1180Q200 1269 209 1346T248 1479T338 1568T500 1600Q519 1600 540 1599T580 1594T614 1586T639 1575L570 1449Q564 1450 556 1451Q549 1452 540 1453T520 1454Q476 1454 452 1433T416 1376T402
1293T400 1194V-14Q400 -66 402 -113T415 -196T451 -253T520 -274Q531 -274 540 -274T556 -272Q564 -271 570 -269L639 -395Q630 -401 615 -406T580 -414T540 -418T500 -420Q398 -420 339 -388T249 -300T209 -166T200 0V1180Z" />
<glyph unicode=")" glyph-name="parenright" horiz-adv-x="900" d="M699 0Q699 -89 690 -166T651 -299T561 -388T399 -420Q380 -420 359 -419T319 -414T285 -406T260 -395L329 -269Q335 -271 343 -272Q350 -273 359 -273T379 -274Q423 -274 447 -253T483 -196T497
-113T499 -14V1194Q499 1246 497 1293T484 1376T448 1433T379 1454Q368 1454 359 1453T343 1451Q335 1450 329 1449L260 1575Q269 1581 284 1586T319 1594T359 1598T399 1600Q501 1600 560 1568T650 1480T690 1346T699 1180V0Z" />
<glyph unicode="*" glyph-name="asterisk" horiz-adv-x="1100" d="M631 994L771 802L672 712L523 918L499 990L475 918L335 726L219 793L367 996L432 1041L351 1045L128 1118L155 1249L393 1172L459 1120L437 1202V1436L570 1450V1198L544 1118L610 1168L835 1240L889
1118L647 1040L568 1037L631 994Z" />
<glyph unicode="+" glyph-name="plus" horiz-adv-x="1200" d="M100 700H473V1121H628V700H1000V545H628V122H473V545H100V700Z" />
<glyph unicode="," glyph-name="comma" horiz-adv-x="500" d="M102 133Q102 162 113 188T145 234T193 265T250 277Q279 277 305 267T352 236T385 186T398 116Q398 63 392 14T365 -87T306 -191T206 -301L154 -278Q177 -234 195 -187Q210 -148 222 -102T235 -11Q210
-10 186 0T143 27T113 72T102 133Z" />
<glyph unicode="-" glyph-name="hyphen" horiz-adv-x="900" d="M200 600H700V445H200V600Z" />
<glyph unicode="." glyph-name="period" horiz-adv-x="600" d="M86 150Q86 184 99 214T134 266T186 302T250 315Q284 315 314 302T366 267T402 214T415 150Q415 116 402 86T367 33T316 -3T252 -17Q218 -17 188 -4T135 32T99 85T86 150Z" />
<glyph unicode="/" glyph-name="slash" horiz-adv-x="1100" d="M285 -100H75L785 1600H985L285 -100Z" />
<glyph unicode="0" glyph-name="zero" horiz-adv-x="1300" d="M600 -17Q515 -17 444 15T317 104T218 235T147 395T104 571T90 750Q90 840 102 932T140 1109T206 1268T303 1398T433 1485T600 1517Q685 1517 756 1485T883 1396T982 1265T1053 1105T1096 928T1110
750Q1110 660 1098 568T1060 391T994 232T897 102T766 15T600 -17ZM297 793Q297 735 301 666T317 526T350 389T406 272T490 189T608 158Q669 158 714 181T793 245T847 339T880 454T898 580T903 707Q903 765 899 834T883 974T850 1110T794 1228T710 1310T592 1341Q531
1341 486 1318T407 1254T353 1160T320 1045T302 920T297 793Z" />
<glyph unicode="1" glyph-name="one" horiz-adv-x="1300" d="M350 0V160H595V1126L653 1353L517 1167L305 979L197 1100L655 1520L805 1500V160H1050V0H350Z" />
<glyph unicode="2" glyph-name="two" horiz-adv-x="1300" d="M152 0V168Q200 244 255 317T367 459T479 589T580 702Q631 758 677 807T758 906T814 1005T835 1115Q835 1163 817 1205T767 1279T689 1329T590 1348Q529 1348 485 1332T407 1288T349 1228T303 1160L162
1220Q188 1285 228 1339T324 1433T449 1495T605 1517Q706 1517 785 1481T918 1387T1001 1254T1030 1104Q1030 1027 1002 958T931 826T839 708T749 605Q697 544 645 485T546 370T457 261T386 160H1056V0H152Z" />
<glyph unicode="3" glyph-name="three" horiz-adv-x="1300" d="M215 1340L230 1500H960V1360Q948 1320 920 1277T853 1189T769 1102T677 1019L545 945Q555 947 570 947T600 948Q697 948 780 924T925 852T1022 729T1058 553Q1058 456 1022 377T924 237T777 131T598
57T400 14T200 0V160Q283 163 363 175T515 208T648 261T753 333T823 427T848 543Q848 615 818 663T734 739T610 778T456 790Q424 790 387 789T319 785V940Q360 970 408 1008T505 1087T600 1171T685 1252T749 1324T783 1380L631 1340H215Z" />
<glyph unicode="4" glyph-name="four" horiz-adv-x="1300" d="M1085 300H905V0H695V300H100V471L584 1520L773 1500L358 600L265 460H695V867L905 850V460H1100L1085 300Z" />
<glyph unicode="5" glyph-name="five" horiz-adv-x="1300" d="M408 982Q415 986 432 995T476 1013T535 1028T610 1035Q714 1035 795 1003T933 914T1019 781T1049 619Q1049 518 1013 433T915 279T769 158T591 71T396 18T200 0V160Q275 162 352 178T500 222T634
289T743 375T817 479T844 598Q844 649 828 697T779 782T697 843T583 866Q532 866 491 860T418 844T362 822T324 800H200V1500H953V1340H408V982Z" />
<glyph unicode="6" glyph-name="six" horiz-adv-x="1300" d="M929 1344Q922 1346 909 1346T884 1347Q812 1347 744 1325T616 1261T506 1163T417 1038T353 891T320 730L403 847Q428 863 461 877T532 903T607 920T679 927Q766 927 846 903T989 829T1089 701T1127
513Q1127 405 1091 309T988 140T830 25T626 -17Q528 -17 453 14T321 98T228 217T167 354T133 494T123 620Q123 739 147 852T218 1064T332 1247T484 1390T672 1483T893 1517Q908 1517 926 1517T954 1514L929 1344ZM329 597Q329 569 329 546T332 501T339 457T350
407Q364 350 388 304T446 224T526 172T629 153Q708 153 763 183T854 262T905 375T922 503Q922 566 904 614T851 693T770 741T664 757Q610 757 559 744T464 709T385 658T329 597Z" />
<glyph unicode="7" glyph-name="seven" horiz-adv-x="1300" d="M200 1500H1100V1370Q1100 1327 1068 1260T985 1108T876 928T763 730T669 526T618 329Q613 288 611 245T607 158T605 75T605 0H400Q400 30 400 80T403 187T409 298T422 392Q445 499 488 602T581 801T685
982T781 1136T851 1258T879 1340H200V1500Z" />
<glyph unicode="8" glyph-name="eight" horiz-adv-x="1300" d="M611 1517Q702 1517 780 1492T914 1420T1003 1306T1035 1155Q1035 1096 1018 1050T970 968T901 902T817 846Q891 813 949 771T1048 675T1110 555T1132 410Q1132 299 1088 219T972 86T807 8T617 -17Q522
-17 434 11T279 95T170 233T129 424Q129 504 152 569T215 686T310 778T429 850Q382 879 342 910T271 976T223 1053T205 1144Q205 1241 243 1311T342 1427T473 1495T611 1517ZM600 760Q537 733 487 701T401 627T346 533T326 414Q326 354 350 305T415 221T509 166T618
147Q682 147 739 164T840 216T909 300T934 415Q934 482 905 534T828 628T721 702T600 760ZM641 923Q733 964 787 1022T842 1163Q842 1213 822 1249T770 1308T702 1341T630 1352Q585 1352 543 1339T469 1300T418 1241T398 1167Q398 1121 417 1086T470 1022T548 969T641
923Z" />
<glyph unicode="9" glyph-name="nine" horiz-adv-x="1300" d="M848 663Q789 617 730 595T595 573Q497 573 412 605T264 698T165 842T129 1031Q129 1139 163 1228T261 1381T415 1481T618 1517Q718 1517 794 1486T927 1404T1020 1287T1080 1150T1112 1009T1122 880Q1122
763 1099 653T1030 445T918 265T768 122T581 25T361 -17L330 150Q450 156 555 207T741 342T871 539T928 780L848 663ZM916 953Q913 1028 894 1098T840 1224T752 1313T626 1347Q558 1347 504 1325T412 1264T354 1170T333 1049Q333 984 349 928T399 831T484 767T605
743Q658 743 706 760T795 805T867 872T916 953Z" />
<glyph unicode=":" glyph-name="colon" horiz-adv-x="600" d="M152 389Q152 420 164 447T196 494T242 526T300 538Q331 538 358 526T405 494T437 447T449 389Q449 358 437 331T406 284T359 251T302 239Q271 239 244 251T196 283T164 331T152 389ZM152 647Q152
678 164 705T196 752T242 784T300 796Q331 796 358 784T405 752T437 705T449 647Q449 616 437 589T406 542T359 509T302 497Q271 497 244 509T196 541T164 589T152 647Z" />
<glyph unicode=";" glyph-name="semicolon" horiz-adv-x="500" d="M102 647Q102 678 114 705T146 752T192 784T250 796Q281 796 308 784T355 752T387 705T399 647Q399 616 387 589T356 542T309 509T252 497Q221 497 194 509T146 541T114 589T102 647ZM102 133Q102
162 113 188T145 234T193 265T250 277Q279 277 305 267T352 236T385 186T398 116Q398 63 392 14T365 -87T306 -191T206 -301L154 -278Q177 -234 195 -187Q210 -148 222 -102T235 -11Q210 -10 186 0T143 27T113 72T102 133Z" />
<glyph unicode="&lt;" glyph-name="less" horiz-adv-x="1300" d="M1100 1211V1036L413 670L335 650L412 630L1100 266V91L200 548V757L1100 1211Z" />
<glyph unicode="=" glyph-name="equal" horiz-adv-x="1000" d="M100 700H900V560H100V700ZM100 400H900V260H100V400Z" />
<glyph unicode="&gt;" glyph-name="greater" horiz-adv-x="1300" d="M1100 757V548L200 91V266L888 630L965 650L887 670L200 1036V1211L1100 757Z" />
<glyph unicode="?" glyph-name="question" horiz-adv-x="1100" d="M1000 1144Q1000 1081 983 1031T939 940T876 864T803 796T730 727T667 652T622 562T605 450L395 429Q395 518 412 586T456 706T519 799T592 873T665 937T728 999T773 1068T790 1152Q790 1204 770
1242T716 1304T635 1339T535 1351Q497 1351 457 1340T378 1308T304 1257T240 1190L107 1300Q156 1366 213 1408T330 1475T448 1508T560 1517Q645 1517 724 1495T864 1427T963 1311T1000 1144ZM369 120Q369 147 379 171T408 213T449 241T500 252Q527 252 551 242T593
213T621 171T632 120Q632 93 622 69T594 26T553 -3T502 -14Q474 -14 450 -3T408 26T380 68T369 120Z" />
<glyph unicode="@" glyph-name="at" horiz-adv-x="2000" d="M1005 1517Q1133 1517 1244 1484T1447 1389T1611 1243T1732 1056T1807 835T1833 591Q1833 509 1828 431T1810 281T1774 151T1713 48T1623 -19T1498 -44Q1443 -44 1394 -33T1308 2T1248 66T1221 162L1126
50Q1109 37 1087 25T1043 4T998 -11T956 -17Q881 -17 813 6T693 75T611 188T580 344Q580 437 617 505T713 619T844 687T985 710Q1042 710 1085 704T1159 690Q1194 681 1220 670V705Q1220 760 1212 803T1181 876T1118 921T1015 937Q961 937 911 930T822 913Q776
902 737 890L665 1024Q709 1044 765 1060Q813 1074 879 1085T1025 1097Q1137 1097 1209 1068T1324 986T1383 857T1400 690V179Q1400 163 1407 147T1426 117T1456 96T1493 88Q1523 88 1545 114T1583 181T1608 271T1624 368T1632 454T1634 513Q1634 629 1618 737T1569
938T1485 1109T1363 1241T1201 1326T997 1356Q890 1356 803 1327T647 1246T528 1123T446 967T397 789T381 597Q381 492 396 388T443 188T525 12T645 -129T806 -223T1013 -257Q1063 -257 1110 -250T1197 -230T1268 -204T1319 -176L1399 -326Q1311 -373 1215 -395T1005
-417Q872 -417 759 -382T553 -282T389 -129T270 68T197 298T172 552Q172 686 196 809T267 1040T385 1235T548 1385T755 1482T1005 1517ZM1220 533Q1192 537 1160 541Q1133 544 1098 547T1025 550Q969 550 923 539T842 504T789 440T770 345Q770 300 785 263T826
199T887 158T964 143Q983 143 1004 148T1047 163T1090 184T1131 208Q1176 237 1220 274V533Z" />
<glyph unicode="A" glyph-name="A" horiz-adv-x="1300" d="M62 0L485 1300L520 1500L737 1520L1235 0H1035L887 450H392L246 0H62ZM639 1360L603 1100L441 600H838L675 1100L639 1360Z" />
<glyph unicode="B" glyph-name="B" horiz-adv-x="1300" d="M400 1147V885H510Q575 885 636 899T744 945T821 1027T850 1148Q850 1214 822 1258T749 1328T646 1364T532 1375Q515 1375 495 1374T455 1371T415 1365T380 1359L400 1147ZM190 0V1290L160 1490Q190 1494
229 1498T311 1504T394 1508T467 1510Q578 1510 681 1496T865 1443T993 1339T1041 1169Q1041 1060 989 981T850 860L696 816L843 802Q904 784 958 756T1054 686T1118 589T1142 460Q1142 375 1119 308T1057 190T965 103T852 44T727 11T600 0H190ZM400 160H540Q639
160 714 174T840 222T916 311T942 450Q942 525 916 578T843 665T728 714T580 730H400V160Z" />
<glyph unicode="C" glyph-name="C" horiz-adv-x="1200" d="M1106 104Q1024 38 925 11T708 -17Q564 -17 449 45T254 215T132 465T89 770Q89 921 127 1056T245 1294T445 1457T731 1517Q846 1517 948 1481T1123 1375L1033 1268Q985 1300 913 1324T747 1348Q625 1348
540 1302T401 1178T323 995T298 773Q298 704 309 632T342 490T400 360T484 253T595 180T734 153Q779 153 816 157T887 170T956 193T1029 230L1106 104Z" />
<glyph unicode="D" glyph-name="D" horiz-adv-x="1300" d="M170 1500Q201 1503 244 1505T332 1508T422 1510T500 1511Q659 1511 794 1472T1029 1348T1184 1130T1240 810Q1240 664 1212 548T1135 341T1016 187T863 81T685 20T491 0H200V1290L170 1500ZM410 1150V160H430Q575
160 676 190T843 269T947 383T1003 517T1026 654T1030 780Q1030 907 1008 1013T927 1196T763 1315T491 1358Q475 1358 457 1357T423 1354Q405 1352 385 1350L410 1150Z" />
<glyph unicode="E" glyph-name="E" horiz-adv-x="1200" d="M1045 160L1025 0H175L190 200V1290L160 1500H1010V1340H380L400 1150V885H940V740H400V340L390 160H1045Z" />
<glyph unicode="F" glyph-name="F" horiz-adv-x="1100" d="M400 0H190V1290L160 1500H1045L1025 1340H380L400 1150V885H940V740H400V0Z" />
<glyph unicode="G" glyph-name="G" horiz-adv-x="1300" d="M1200 197Q1159 152 1108 113T996 45T863 0T708 -17Q564 -17 449 45T254 215T131 465T88 770Q88 921 126 1056T244 1294T445 1457T731 1517Q846 1517 948 1481T1123 1375L1033 1268Q985 1300 913 1324T747
1348Q625 1348 540 1302T401 1178T323 995T298 773Q298 704 309 632T342 490T400 360T484 253T595 180T734 153Q779 153 821 162T899 187T963 220T1010 258V645L700 665V805H1200V197Z" />
<glyph unicode="H" glyph-name="H" horiz-adv-x="1400" d="M1015 0V725H385V0H180V1290L151 1500L385 1520V885H1015V1502L1220 1520V0H1015Z" />
<glyph unicode="I" glyph-name="I" horiz-adv-x="600" d="M190 0V1290L160 1500L400 1520V0H190Z" />
<glyph unicode="J" glyph-name="J" horiz-adv-x="900" d="M270 1497L700 1520V430Q700 238 597 113T297 -17Q129 -17 0 115L92 233Q102 223 121 210T167 184T223 164T287 156Q391 156 440 234T490 470V1148L510 1338L290 1325L270 1497Z" />
<glyph unicode="K" glyph-name="K" horiz-adv-x="1200" d="M190 0V1290L160 1500L400 1520V856L941 1500H1163L632 865L463 802L637 744L1190 0H953L400 746V0H190Z" />
<glyph unicode="L" glyph-name="L" horiz-adv-x="1100" d="M390 160H1040L1020 0H170L190 200V1290L160 1500L400 1520V340L390 160Z" />
<glyph unicode="M" glyph-name="M" horiz-adv-x="1800" d="M1400 0V1000L1444 1320L1439 1321L1338 1020L923 130H854L485 920L353 1321L347 1320L400 901V0H200V1290L172 1500L406 1520L845 580L900 320L955 580L1384 1500L1610 1520V0H1400Z" />
<glyph unicode="N" glyph-name="N" horiz-adv-x="1500" d="M1100 0L485 1028L368 1317L362 1316L400 1000V0H200V1290L170 1500L406 1520L1022 487L1142 173L1148 174L1100 510V1500L1295 1520V0H1100Z" />
<glyph unicode="O" glyph-name="O" horiz-adv-x="1600" d="M800 -17Q642 -17 517 41T305 201T171 444T124 750Q124 915 169 1055T300 1298T513 1459T800 1517Q957 1517 1082 1459T1295 1299T1429 1056T1476 750Q1476 585 1431 445T1300 202T1087 41T800 -17ZM1268
719Q1268 799 1257 876T1222 1023T1160 1152T1070 1255T949 1322T794 1347Q671 1347 584 1300T440 1173T358 993T332 785Q332 704 343 626T379 478T440 348T530 245T651 178T806 153Q887 153 953 175T1070 237T1159 330T1220 446T1256 578T1268 719Z" />
<glyph unicode="P" glyph-name="P" horiz-adv-x="1200" d="M400 0H190V1290L155 1490Q185 1495 228 1499T321 1506T419 1510T507 1512Q622 1512 727 1492T914 1423T1043 1297T1091 1104Q1091 964 1041 872T900 724T682 647T400 624V0ZM400 1147V765Q520 765 613
779T770 829T867 930T900 1095Q900 1170 869 1223T787 1310T675 1359T552 1375Q535 1375 512 1374T464 1370T418 1365T380 1359L400 1147Z" />
<glyph unicode="Q" glyph-name="Q" horiz-adv-x="1600" d="M1404 -145Q1348 -145 1293 -138T1184 -104T1081 -30T987 102Q982 111 977 120T967 137L957 -1Q920 -9 881 -13T800 -17Q642 -17 517 41T305 201T171 444T124 750Q124 915 169 1055T300 1298T513 1459T800
1517Q957 1517 1082 1459T1295 1299T1429 1056T1476 750Q1476 645 1458 550T1403 372T1315 221T1194 103Q1223 66 1250 46T1309 15T1377 2T1461 -1L1404 -145ZM1268 719Q1268 799 1257 876T1222 1023T1160 1152T1070 1255T949 1322T794 1347Q671 1347 584 1300T440
1173T358 993T332 785Q332 704 343 626T379 478T440 348T530 245T651 178T806 153Q844 153 879 158T945 172Q916 217 889 243T831 282T765 298T682 301L739 445Q794 445 846 433T948 391T1048 309T1145 177V314Q1209 395 1238 501T1268 719Z" />
<glyph unicode="R" glyph-name="R" horiz-adv-x="1300" d="M400 614V0H190V1290L155 1490Q188 1494 234 1498T331 1505T433 1510T527 1512Q653 1512 757 1486T935 1407T1050 1278T1091 1099Q1091 994 1059 914T967 778T827 686T648 633L790 593L1233 0H1010L567
595Q556 609 542 611T520 614H400ZM400 1147V765H548Q639 765 706 790T817 859T883 960T905 1083Q905 1168 873 1224T790 1314T676 1361T552 1375Q531 1375 508 1375T462 1373T418 1370T380 1364L400 1147Z" />
<glyph unicode="S" glyph-name="S" horiz-adv-x="1100" d="M870 1274Q802 1314 740 1333T600 1352Q546 1352 495 1341T404 1306T340 1242T315 1145Q315 1089 345 1048T423 975T534 915T662 857T789 790T900 704T979 588T1009 432Q1009 358 989 296T934 183T849
96T742 33T620 -4T488 -17Q255 -13 82 94L173 244Q193 231 225 215T298 183T383 158T474 148Q536 148 595 163T701 211T776 294T805 413Q805 478 775 526T697 613T586 683T458 745T331 810T220 887T141 985T111 1116Q111 1213 151 1287T256 1413T405 1490T574 1517Q787
1517 967 1397L870 1274Z" />
<glyph unicode="T" glyph-name="T" horiz-adv-x="1200" d="M495 0V1340H80V1500H1115V1340H705V0H495Z" />
<glyph unicode="U" glyph-name="U" horiz-adv-x="1400" d="M1220 1500V523Q1220 387 1179 286T1067 117T897 17T685 -17Q563 -17 469 25T311 145T214 332T180 573V1290L150 1500L385 1520V554Q385 459 410 385T477 259T576 180T695 153Q768 153 827 175T928 241T992
350T1015 504V1500H1220Z" />
<glyph unicode="V" glyph-name="V" horiz-adv-x="1300" d="M585 500L673 140L721 454L1051 1500H1240L821 180L795 -20L549 0L67 1500L262 1520L585 500Z" />
<glyph unicode="W" glyph-name="W" horiz-adv-x="1900" d="M872 1500H1029L1288 460L1352 100H1356L1379 460L1639 1500H1814L1440 0H1208L987 885L958 1243L894 885L673 0H441L67 1500L258 1520L522 460L586 100H590L612 460L872 1500Z" />
<glyph unicode="X" glyph-name="X" horiz-adv-x="1300" d="M1014 0L701 519L624 700L576 540L251 0H53L533 799L110 1500L322 1520L600 1056L680 860L715 1020L1003 1500H1203L768 776L1234 0H1014Z" />
<glyph unicode="Y" glyph-name="Y" horiz-adv-x="1200" d="M660 935L948 1500H1140L705 646V0H495V645L59 1500L263 1520L551 954L630 705L660 935Z" />
<glyph unicode="Z" glyph-name="Z" horiz-adv-x="1200" d="M1090 160L1110 0H81L61 50L716 1200L900 1380L635 1340H150L130 1500H1076L1091 1478L430 300L252 120L517 160H1090Z" />
<glyph unicode="[" glyph-name="bracketleft" horiz-adv-x="900" d="M122 1320L100 1520H672V1370H300L320 1170V-70L300 -270H672V-420H100L122 -220V1320Z" />
<glyph unicode="\" glyph-name="backslash" horiz-adv-x="1100" d="M75 1600H275L985 -100H775L75 1600Z" />
<glyph unicode="]" glyph-name="bracketright" horiz-adv-x="1000" d="M678 -220L700 -420H128V-270H500L480 -70V1170L500 1370H128V1520H700L678 1320V-220Z" />
<glyph unicode="^" glyph-name="asciicircum" horiz-adv-x="1500" d="M1373 912H1172L794 1239L749 1350L705 1241L338 914H122L677 1500L806 1517L1373 912Z" />
<glyph unicode="_" glyph-name="underscore" horiz-adv-x="1100" d="M0 -300H1100V-455H0V-300Z" />
<glyph unicode="`" glyph-name="grave" horiz-adv-x="1100" d="M660 1200H510L285 1500L489 1520L660 1200Z" />
<glyph unicode="a" glyph-name="a" horiz-adv-x="1050" d="M920 0H710V162L616 50Q599 37 577 25T533 4T488 -11T446 -17Q371 -17 303 6T183 75T101 188T70 344Q70 437 107 505T203 619T334 687T475 710Q532 710 575 704T649 690Q684 681 710 670V705Q710 764
703 811T675 890T613 940T505 957Q451 957 401 950T312 933Q266 922 227 910L155 1044Q199 1064 255 1080Q303 1094 369 1105T515 1117Q630 1117 705 1086T823 999T883 865T900 690V180L920 0ZM710 533Q682 537 650 541Q623 544 588 547T515 550Q459 550 413 539T332
504T279 440T260 345Q260 300 275 263T316 199T377 158T454 143Q473 143 494 148T537 163T580 184T621 208Q666 237 710 274V533Z" />
<glyph unicode="b" glyph-name="b" horiz-adv-x="1200" d="M390 171Q409 165 434 160T487 151T546 145T604 143Q665 143 711 163T792 216T848 295T885 391T904 496T910 601Q910 701 891 769T840 879T765 939T675 957Q596 957 524 927T390 845V171ZM200 1420L180
1600L390 1620V974L475 1065Q526 1089 582 1103T694 1117Q777 1117 850 1083T979 983T1067 819T1100 596Q1100 458 1063 345T958 152T798 27T595 -17Q532 -17 471 -13T357 -1T263 16T200 35V1420Z" />
<glyph unicode="c" glyph-name="c" horiz-adv-x="1000" d="M807 878Q768 913 715 935T604 957Q520 957 461 926T366 840T312 715T295 564Q295 482 310 408T363 276T461 186T615 152Q692 152 745 170T828 208L900 67Q844 29 770 6T601 -17Q476 -17 382 32T226 164T132
354T100 577Q100 681 130 778T223 951T381 1071T606 1117Q698 1117 770 1089T906 991L807 878Z" />
<glyph unicode="d" glyph-name="d" horiz-adv-x="1200" d="M656 940Q564 940 497 906T386 812T321 673T300 502Q300 413 321 346T375 234T452 167T540 144Q587 144 627 160T702 200T763 252T810 306V940H656ZM810 0V162L715 49Q697 37 676 25T629 4T572 -11T501
-17Q419 -17 348 23T225 136T142 307T111 526Q111 646 149 750T259 933T430 1055T655 1100H810V1620L1000 1600V180L1020 0H810Z" />
<glyph unicode="e" glyph-name="e" horiz-adv-x="1100" d="M966 129Q935 97 898 70T816 24T717 -6T595 -17Q462 -17 368 30T215 156T128 337T100 550Q100 621 113 690T152 823T217 940T308 1033T425 1094T570 1117Q678 1117 757 1082T888 984T965 833T990 638Q990
607 988 570T982 500H290Q290 425 310 360T368 247T457 171T575 143Q639 143 686 152T768 175T823 203T857 225L966 129ZM800 650Q801 661 801 672T802 694Q802 751 789 799T750 882T682 938T585 958Q518 958 471 937T391 882T339 808T309 732L257 623L435 650H800Z"
/>
<glyph unicode="f" glyph-name="f" horiz-adv-x="800" d="M50 1100H200V1255Q200 1340 218 1407T277 1520T379 1592T530 1617Q575 1617 612 1610T681 1590T739 1562T787 1529L702 1411Q681 1426 644 1441T562 1457Q476 1457 431 1409T385 1245V1100H675L655 940H390V0H200V940H50V1100Z"
/>
<glyph unicode="g" glyph-name="g" horiz-adv-x="1200" d="M810 135L723 25Q714 19 698 12T657 -1T601 -12T530 -17Q439 -17 361 27T224 148T133 327T100 545Q100 662 130 766T220 948T369 1071T576 1117Q613 1117 648 1114T715 1100L810 958V1120L1000 1100V-46Q1000
-144 967 -230T870 -379T717 -480T512 -517Q433 -517 374 -497T272 -453Q224 -425 189 -388L287 -278Q316 -300 352 -318Q383 -333 424 -345T513 -357Q575 -357 629 -332T723 -262T787 -159T810 -31V135ZM810 834Q783 868 747 895Q716 918 672 937T571 957Q511
957 467 938T392 887T341 813T310 723T294 627T290 533Q290 448 308 377T360 254T441 173T546 144Q597 144 637 155T709 184T765 226T810 275V834Z" />
<glyph unicode="h" glyph-name="h" horiz-adv-x="1200" d="M390 0H200V1400L180 1600L390 1620V950L479 1065Q518 1087 572 1102T690 1117Q840 1117 920 1017T1000 730V0H810V709Q810 776 799 823T766 900T714 943T644 957Q605 957 568 948T498 922T438 883T390 833V0Z" />
<glyph unicode="i" glyph-name="i" horiz-adv-x="600" d="M390 0H200V1055L390 1075V0ZM194 1500H396V1300H194V1500Z" />
<glyph unicode="j" glyph-name="j" horiz-adv-x="600" d="M194 1500H396V1300H194V1500ZM-22 -345Q-11 -349 14 -353T70 -357Q107 -357 132 -338T172 -284T193 -205T200 -107V1055L390 1075V-97Q390 -186 379 -263T333 -396T239 -485T80 -517Q19 -517 -15 -506T-61
-489L-22 -345Z" />
<glyph unicode="k" glyph-name="k" horiz-adv-x="1100" d="M200 0V1420L180 1600L390 1620V690L760 1100H989L619 690L451 627L619 567L1100 0H864L390 557V0H200Z" />
<glyph unicode="l" glyph-name="l" horiz-adv-x="700" d="M390 376Q390 310 397 266T419 194T455 155T505 143Q527 143 545 145T576 152Q591 156 603 161L672 40Q664 32 647 23T605 4T551 -11T485 -17Q395 -17 339 16T252 106T211 238T200 400V1400L180 1600L390
1620V376Z" />
<glyph unicode="m" glyph-name="m" horiz-adv-x="1800" d="M390 0H200V1100L390 1120V937L451 1044Q469 1056 496 1069T557 1092T630 1110T710 1117Q822 1117 892 1063T983 923L1059 1040Q1094 1068 1158 1092T1305 1117Q1381 1117 1435 1092T1523 1018T1574 902T1590
750V0H1400V740Q1400 794 1393 834T1367 902T1317 943T1240 957Q1211 957 1180 947T1116 921T1054 883T996 839Q999 810 999 791T1000 740V0H810V740Q810 848 774 902T645 957Q615 957 581 948T514 923T448 887T390 844V0Z" />
<glyph unicode="n" glyph-name="n" horiz-adv-x="1200" d="M390 0H200V1100L390 1120V937L451 1044Q469 1056 497 1069T559 1092T634 1110T715 1117Q794 1117 848 1092T937 1018T985 902T1000 750V0H810V750Q810 804 803 843T777 907T727 945T650 957Q616 957
581 947T513 920T448 883T390 844V0Z" />
<glyph unicode="o" glyph-name="o" horiz-adv-x="1200" d="M599 -17Q488 -17 397 26T239 146T137 327T100 553Q100 674 135 777T235 956T392 1074T599 1117Q710 1117 802 1075T960 957T1063 778T1100 553Q1100 432 1065 328T964 147T806 27T599 -17ZM910 526Q910
607 893 685T837 824T739 924T595 962Q515 962 457 929T362 841T308 716T290 572Q290 491 307 413T362 274T459 176T603 138Q682 138 740 171T836 258T892 383T910 526Z" />
<glyph unicode="p" glyph-name="p" horiz-adv-x="1200" d="M390 160H554Q646 160 713 190T824 276T889 408T910 578Q910 676 891 747T839 865T763 934T670 957Q621 957 579 945T501 913T437 871T390 827V160ZM200 -500V1100L390 1120V944L485 1071Q514 1088 567
1102T699 1117Q782 1117 855 1078T982 967T1068 793T1100 565Q1100 442 1060 339T947 160T769 42T535 0H390V-500H200Z" />
<glyph unicode="q" glyph-name="q" horiz-adv-x="1200" d="M810 935Q791 939 766 943T712 950T653 955T596 957Q504 957 446 918T354 817T308 678T295 524Q295 424 314 352T364 234T437 165T525 143Q564 143 602 153T676 181T745 222T810 270V935ZM810 136L705
29Q654 5 604 -6T506 -17Q423 -17 350 20T221 127T133 297T100 524Q100 662 137 772T240 958T398 1076T600 1117Q663 1117 726 1112T843 1099T938 1082T1000 1065V-500H810V136Z" />
<glyph unicode="r" glyph-name="r" horiz-adv-x="800" d="M671 948Q631 948 592 932T517 889T449 826T390 750V0H200V1100L390 1120V895L490 1070Q503 1078 522 1086T567 1101T620 1112T679 1117Q724 1117 754 1109T800 1094L790 928Q775 933 745 940T671 948Z" />
<glyph unicode="s" glyph-name="s" horiz-adv-x="900" d="M661 919Q643 928 618 937T566 953T512 964T459 968Q353 968 309 937T265 842Q265 800 294 773T369 723T471 682T582 635Q621 616 661 590T733 529T785 450T805 351Q805 250 771 180T679 67T542 3T374
-17Q340 -17 297 -11T211 7T129 35T64 69L130 201Q154 189 187 179T255 160T324 148T386 143Q432 143 474 152T549 183T601 237T621 320Q621 357 606 385T564 434T502 474T428 508T348 542T270 581Q235 601 203 625T145 679T105 746T90 832Q90 908 117 962T193
1051T311 1101T463 1117Q501 1117 538 1111T609 1096T671 1073T719 1047L661 919Z" />
<glyph unicode="t" glyph-name="t" horiz-adv-x="800" d="M390 376Q390 310 397 266T419 194T455 155T505 143Q527 143 545 145T576 152Q591 156 603 161L672 40Q664 32 647 23T605 4T551 -11T485 -17Q395 -17 339 16T252 106T211 238T200 400V940H50V1100H200V1309L385
1420V1100H725L705 940H390V376Z" />
<glyph unicode="u" glyph-name="u" horiz-adv-x="1200" d="M810 1100L1000 1120V0H810V163L749 56Q731 44 707 31T651 8T583 -10T505 -17Q425 -17 368 12T273 93T218 216T200 372V1100L390 1120V372Q390 264 433 204T570 143Q604 143 637 154T701 182T759 219T810
258V1100Z" />
<glyph unicode="v" glyph-name="v" horiz-adv-x="1100" d="M1005 1120L634 -20L428 0L71 1100L254 1120L493 381L546 149L596 381L830 1100L1005 1120Z" />
<glyph unicode="w" glyph-name="w" horiz-adv-x="1500" d="M997 480L1039 200L1079 480L1250 1100L1412 1117L1103 0H951L780 620L742 900L701 620L530 0H378L75 1100L247 1120L423 480L466 200L506 480L677 1100H825L997 480Z" />
<glyph unicode="x" glyph-name="x" horiz-adv-x="1100" d="M851 0L583 382L538 500L493 382L225 0H26L438 588L80 1100L291 1117L526 781L565 670L603 781L828 1100L1039 1117L665 583L1076 0H851Z" />
<glyph unicode="y" glyph-name="y" horiz-adv-x="1100" d="M602 364L871 1100L1051 1117L637 -17Q606 -101 570 -184T487 -332T386 -439T262 -480Q211 -480 162 -460T72 -403L145 -296Q162 -308 184 -318T230 -328Q263 -328 294 -303T353 -237T406 -147T451 -47L34
1100L224 1117L498 364L550 132L602 364Z" />
<glyph unicode="z" glyph-name="z" horiz-adv-x="1000" d="M880 160L900 0H81L61 50L524 826L676 980L471 940H148L128 1100H832L852 1051L403 280L252 120L457 160H880Z" />
<glyph unicode="{" glyph-name="braceleft" horiz-adv-x="1298" d="M228 625H350Q399 632 428 652T474 704T495 780T500 880V1119Q500 1204 515 1277T569 1404T670 1488T830 1519Q876 1519 908 1516T966 1506T1012 1491T1054 1472L991 1349Q972 1360 940 1368T882
1376Q874 1376 866 1376T850 1374Q801 1367 772 1347T726 1295T705 1219T700 1119V880Q700 776 676 690T593 550Q623 523 643 488T676 410T694 319T700 220V-20Q700 -75 705 -119T726 -196T771 -248T850 -275Q858 -277 866 -277T882 -277Q907 -277 939 -269T991
-250L1054 -373Q1033 -383 1013 -391T967 -406T909 -416T830 -420Q734 -420 671 -390T569 -305T516 -178T500 -20V220Q500 275 495 319T474 396T429 448T350 475H228V625Z" />
<glyph unicode="|" glyph-name="bar" horiz-adv-x="400" d="M300 1520V-400H100V1500L300 1520Z" />
<glyph unicode="}" glyph-name="braceright" horiz-adv-x="1200" d="M1074 625V475H952Q903 468 874 448T828 396T807 320T802 220V-20Q802 -105 787 -178T733 -305T632 -389T472 -420Q426 -420 394 -417T336 -407T290 -392T248 -373L311 -250Q330 -261 362 -269T420
-277Q428 -277 436 -277T452 -275Q501 -268 530 -248T576 -196T597 -120T602 -20V220Q602 271 607 319T626 409T659 487T709 550Q650 604 626 690T602 880V1119Q602 1174 597 1218T576 1295T531 1347T452 1374Q444 1376 436 1376T420 1376Q395 1376 363 1368T311
1349L248 1472Q269 1482 289 1490T335 1505T393 1515T472 1519Q568 1519 631 1489T733 1404T786 1277T802 1119V880Q802 825 807 781T828 704T873 652T952 625H1074Z" />
<glyph unicode="~" glyph-name="asciitilde" horiz-adv-x="1500" d="M193 484Q204 540 235 597T312 701T413 776T531 805Q576 805 617 791T698 756T773 711T845 665T916 630T987 616Q1023 616 1052 632T1102 674T1137 731T1160 792L1306 776Q1296 714 1267 651T1192
537T1088 454T962 422Q926 422 888 436T812 471T735 516T658 562T581 597T507 611Q476 611 450 599T402 566T366 520T342 468L193 484Z" />
<glyph unicode="&#xa0;" glyph-name="nbspace" horiz-adv-x="700" />
<glyph unicode="&#xa1;" glyph-name="exclamdown" horiz-adv-x="700" d="M195 -399V672L405 651V-399H195ZM169 981Q169 1008 179 1032T208 1075T250 1104T302 1115Q329 1115 352 1104T393 1075T421 1033T432 981Q432 954 422 930T393 888T351 860T300 849Q273
849 250 859T208 888T180 930T169 981Z" />
<glyph unicode="&#xa2;" glyph-name="cent" horiz-adv-x="1000" d="M673 1320V1113Q725 1106 770 1088Q843 1060 906 991L807 878Q768 913 714 935Q687 946 660 951V153Q708 157 745 170Q799 188 828 208L900 67Q844 29 769 6Q725 -8 673 -13V-200H527V-12Q447
-2 382 32Q288 82 226 164T132 354T100 577Q100 681 130 778T223 951T381 1071Q446 1102 527 1112V1300L673 1320ZM461 925Q402 894 366 840T312 715T295 564Q295 482 310 408T363 276T461 185Q495 167 539 158V952Q496 944 461 925Z" />
<glyph unicode="&#xa3;" glyph-name="sterling" horiz-adv-x="1100" d="M250 850H411L456 1165Q467 1241 489 1306T548 1419T641 1493T772 1520Q872 1520 944 1487T1045 1428L955 1327Q886 1372 819 1372Q770 1372 738 1357T685 1311T653 1238T634 1141L593 850H800L780
700H572Q517 263 488 224L400 104L562 147H1000V0H54L74 147H212Q247 147 286 197T390 700H250V850Z" />
<glyph unicode="&#xa4;" glyph-name="currency" horiz-adv-x="1200" d="M1062 222L961 121L805 278Q759 247 708 232T602 216Q548 216 497 231T399 278L243 121L142 222L299 378Q268 424 253 475T237 581Q237 635 252 686T299 784L142 940L243 1042L399 885Q445
915 496 930T602 946Q656 946 707 931T805 885L961 1042L1062 940L906 784Q967 689 967 581Q967 527 952 476T906 378L1062 222ZM380 581Q380 536 398 496T446 425T516 377T602 359Q647 359 687 377T758 425T805 495T823 581Q823 626 806 666T758 737T688 784T602
802Q557 802 517 785T446 737T398 667T380 581Z" />
<glyph unicode="&#xa5;" glyph-name="yen" horiz-adv-x="1200" d="M100 550H495V645L467 700H100V850H390L59 1500L263 1520L551 954L630 705L660 935L948 1500H1140L809 850H1100V700H732L705 646V550H1100V400H705V0H495V400H100V550Z" />
<glyph unicode="&#xa6;" glyph-name="brokenbar" horiz-adv-x="400" d="M300 1520V700H100V1500L300 1520ZM300 362V-400H100V362H300Z" />
<glyph unicode="&#xa7;" glyph-name="section" horiz-adv-x="1000" d="M772 1351Q724 1377 672 1385T563 1393Q514 1393 470 1382T393 1347T340 1286T320 1197Q320 1147 343 1108T406 1036T494 972T595 909T696 839T784 755T846 650T870 515Q870 422 834 359T736
257Q696 232 646 216Q662 204 678 192Q727 155 765 113T826 21T850 -88Q850 -165 823 -226T745 -331T620 -397T451 -420Q368 -420 300 -405T164 -348L224 -251Q272 -277 324 -285T433 -293Q482 -293 526 -282T603 -247T656 -186T676 -97Q676 -47 653 -8T590 64T502
128T401 191T300 261T212 345T150 450T126 585Q126 678 162 741T259 842Q300 868 349 883Q333 895 318 907Q269 945 231 987T170 1079T146 1188Q146 1265 173 1326T251 1431T376 1497T545 1520Q627 1520 696 1505T832 1448L772 1351ZM385 767Q348 737 327 692T306
587Q306 536 329 493T391 411T478 336Q508 314 540 291Q580 307 611 332Q648 363 669 408T690 513Q690 564 667 607T605 689T518 763Q487 786 455 808Q416 793 385 767Z" />
<glyph unicode="&#xa8;" glyph-name="dieresis" horiz-adv-x="1100" d="M300 1500H500V1300H300V1500ZM700 1500H900V1300H700V1500Z" />
<glyph unicode="&#xa9;" glyph-name="copyright" horiz-adv-x="1100" d="M550 1517Q647 1517 732 1480T882 1379T983 1230T1020 1047Q1020 949 983 864T882 715T733 614T550 577Q453 577 368 614T218 714T117 863T80 1047Q80 1144 117 1229T218 1379T367 1480T550
1517ZM550 663Q628 663 697 693T819 776T903 898T934 1047Q934 1126 904 1196T822 1318T699 1401T550 1431Q470 1431 401 1401T279 1319T196 1196T166 1047Q166 969 196 900T279 778T401 694T550 663ZM659 1197Q640 1213 613 1223T558 1233Q516 1233 487 1219T439
1180T412 1124T403 1056Q403 1019 411 986T437 927T486 886T563 870Q602 870 628 878T670 896L706 832Q678 815 641 805T556 794Q494 794 447 816T369 876T322 961T306 1062Q306 1108 321 1152T367 1230T446 1284T559 1305Q605 1305 641 1292T709 1248L659 1197Z"
/>
<glyph unicode="&#xaa;" glyph-name="ordfeminine" horiz-adv-x="800" d="M100 800H500V700H100V800ZM505 959H400V1040L353 984Q344 977 333 971T311 961T289 953T268 950Q230 950 196 962T136 996T95 1053T80 1131Q80 1177 98 1211T146 1268T212 1302T282 1314Q311
1314 332 1311T369 1304Q387 1299 400 1294V1311Q400 1341 397 1364T382 1404T351 1428T297 1437Q270 1437 245 1434T201 1425Q178 1420 158 1414L122 1481Q144 1491 172 1499Q196 1506 229 1511T302 1517Q360 1517 397 1502T456 1458T486 1391T495 1304V1049L505
959ZM400 1225Q386 1227 370 1229Q356 1231 339 1232T302 1234Q274 1234 251 1229T211 1211T185 1179T175 1131Q175 1109 182 1091T203 1059T233 1038T272 1030Q281 1030 292 1033T313 1040T335 1051T355 1063Q378 1077 400 1096V1225Z" />
<glyph unicode="&#xab;" glyph-name="guillemotleft" horiz-adv-x="1400" d="M670 1026L720 901L395 610L257 550L394 490L722 201L668 66L200 478V617L670 1026ZM1170 1026L1220 901L895 610L757 550L894 490L1222 201L1168 66L700 478V617L1170 1026Z" />
<glyph unicode="&#xac;" glyph-name="logicalnot" horiz-adv-x="1700" d="M1417 800L1400 589V280H1200V449L1216 640H212V800H1417Z" />
<glyph unicode="&#xad;" glyph-name="sfthyphen" horiz-adv-x="0" />
<glyph unicode="&#xae;" glyph-name="registered" horiz-adv-x="1100" d="M550 1517Q647 1517 732 1480T882 1379T983 1230T1020 1047Q1020 949 983 864T882 715T733 614T550 577Q453 577 368 614T218 714T117 863T80 1047Q80 1144 117 1229T218 1379T367 1480T550
1517ZM550 663Q628 663 697 693T819 776T903 898T934 1047Q934 1126 904 1196T822 1318T699 1401T550 1431Q470 1431 401 1401T279 1319T196 1196T166 1047Q166 969 196 900T279 778T401 694T550 663ZM474 1017V800H400V1222L388 1292Q399 1294 415 1295T450 1298T486
1299T519 1300Q609 1300 654 1270T700 1168Q700 1131 692 1106T666 1065T622 1040T562 1024L612 1009L769 800H690L533 1010Q530 1015 525 1016T517 1017H474ZM474 1171V1070H527Q590 1070 612 1093T634 1162Q634 1192 626 1210T603 1237T569 1249T528 1252Q513
1252 496 1251T467 1248L474 1171Z" />
<glyph unicode="&#xaf;" glyph-name="overscore" horiz-adv-x="1100" d="M200 1500H900V1350H200V1500Z" />
<glyph unicode="&#xb0;" glyph-name="degree" horiz-adv-x="600" d="M300 1517Q356 1517 405 1496T490 1438T548 1352T569 1247Q569 1191 548 1142T491 1057T405 999T300 977Q244 977 195 998T110 1056T52 1142T31 1247Q31 1303 52 1352T109 1438T195 1496T300
1517ZM300 1088Q333 1088 362 1100T412 1134T446 1185T459 1247Q459 1280 447 1309T413 1359T362 1393T300 1406Q267 1406 238 1394T188 1360T154 1309T141 1247Q141 1214 153 1185T187 1135T238 1101T300 1088Z" />
<glyph unicode="&#xb1;" glyph-name="plusminus" horiz-adv-x="1200" d="M100 862H473V1199H628V862H1000V738H628V400H473V738H100V862ZM100 290H1000V150H100V290Z" />
<glyph unicode="&#xb2;" glyph-name="twosuperior" horiz-adv-x="600" d="M76 720V804Q100 842 127 878T183 949T239 1014T290 1071Q315 1099 338 1123T378 1172T406 1222T417 1277Q417 1301 408 1322T383 1359T345 1384T295 1394Q264 1394 242 1386T203 1364T174
1334T151 1300L81 1330Q94 1362 114 1389T161 1436T224 1467T302 1478Q353 1478 392 1460T459 1413T500 1347T515 1272Q515 1233 501 1199T465 1133T420 1074T374 1022Q348 992 322 963T273 905T229 850T193 800H528V720H76Z" />
<glyph unicode="&#xb3;" glyph-name="threesuperior" horiz-adv-x="600" d="M107 1390L115 1470H480V1400Q474 1380 460 1358T426 1314T384 1271T338 1229L272 1192Q277 1193 285 1193T300 1194Q348 1194 390 1182T462 1146T511 1084T529 996Q529 948 511 909T462
838T388 785T299 749T200 727T100 720V800Q141 801 181 807T257 824T323 850T376 886T411 933T424 991Q424 1027 409 1051T367 1089T305 1109T228 1115Q212 1115 193 1114T159 1112V1190Q180 1205 204 1224T252 1263T300 1305T342 1346T374 1381T391 1410L315 1390H107Z"
/>
<glyph unicode="&#xb4;" glyph-name="acute" horiz-adv-x="1100" d="M600 1500L830 1520L590 1200H440L600 1500Z" />
<glyph unicode="&#xb5;" glyph-name="mu" horiz-adv-x="1300" d="M1242 36Q1233 27 1214 18T1171 1T1120 -12T1068 -17Q976 -17 912 26T825 155L800 86Q758 40 687 12T518 -17Q499 -17 474 -16T423 -10T374 3T335 25L380 -166V-500H200V1100L380 1118V348Q380
307 391 269T425 200T484 152T569 133Q601 133 632 142T692 167T748 201T800 241V1100L978 1118V352Q978 292 985 250T1006 182T1040 145T1086 133Q1110 133 1133 137T1177 150L1242 36Z" />
<glyph unicode="&#xb6;" glyph-name="paragraph" horiz-adv-x="1400" d="M730 647Q656 651 603 666T507 702Q435 737 392 783T326 883T295 995T287 1112Q287 1217 329 1289T436 1406T580 1474T730 1500H1202V-400H1033V1348H899V-400H730V647Z" />
<glyph unicode="&#xb7;" glyph-name="middot" horiz-adv-x="500" d="M86 650Q86 684 99 714T134 766T186 802T250 815Q284 815 314 802T366 767T402 714T415 650Q415 616 402 586T367 533T316 497T252 483Q218 483 188 496T135 532T99 585T86 650Z" />
<glyph unicode="&#xb8;" glyph-name="cedilla" horiz-adv-x="1100" d="M524 0Q547 -27 565 -59Q581 -86 594 -122T607 -198Q607 -242 589 -280T539 -346T468 -391T383 -407Q333 -407 287 -394T203 -363Q160 -344 122 -318L193 -218Q219 -236 247 -249Q271 -260
300 -269T359 -279Q396 -279 425 -255T454 -189Q454 -156 438 -123T401 -62Q377 -30 348 0H524Z" />
<glyph unicode="&#xb9;" glyph-name="onesuperior" horiz-adv-x="600" d="M177 720V800H299V1283L328 1396L260 1303L154 1209L100 1270L329 1480L404 1470V800H527V720H177Z" />
<glyph unicode="&#xba;" glyph-name="ordmasculine" horiz-adv-x="800" d="M100 800H500V700H100V800ZM299 950Q244 950 198 972T119 1032T68 1122T50 1235Q50 1296 67 1347T117 1437T196 1496T299 1517Q355 1517 401 1496T480 1437T531 1348T550 1235Q550 1175
532 1123T482 1032T403 972T299 950ZM455 1222Q455 1262 446 1301T418 1371T369 1421T297 1440Q257 1440 228 1424T181 1380T154 1317T145 1245Q145 1204 153 1165T181 1096T229 1047T301 1028Q341 1028 370 1044T418 1088T446 1150T455 1222Z" />
<glyph unicode="&#xbb;" glyph-name="guillemotright" horiz-adv-x="1400" d="M700 617V478L232 66L178 201L506 490L643 550L505 610L180 901L230 1026L700 617ZM1200 617V478L732 66L678 201L1006 490L1143 550L1005 610L680 901L730 1026L1200 617Z" />
<glyph unicode="&#xbc;" glyph-name="onequarter" horiz-adv-x="1500" d="M454 0H319L1094 1500H1220L454 0ZM175 720V800H297V1283L326 1396L258 1303L152 1209L98 1270L327 1480L402 1470V800H525V720H175ZM1395 150H1305V0H1200V150H903V235L1145 760L1239
750L1032 300L985 230H1200V433L1305 425V230H1403L1395 150Z" />
<glyph unicode="&#xbd;" glyph-name="onehalf" horiz-adv-x="1500" d="M454 0H319L1094 1500H1220L454 0ZM175 720V800H297V1283L326 1396L258 1303L152 1209L98 1270L327 1480L402 1470V800H525V720H175ZM949 0V84Q973 122 1000 158T1056 229T1112 294T1163 351Q1188
379 1211 403T1251 452T1279 502T1290 557Q1290 581 1281 602T1256 639T1218 664T1168 674Q1137 674 1115 666T1076 644T1047 614T1024 580L954 610Q967 642 987 669T1034 716T1097 747T1175 758Q1226 758 1265 740T1332 693T1373 627T1388 552Q1388 513 1374 479T1338
413T1293 354T1247 302Q1221 272 1195 243T1146 185T1102 130T1066 80H1401V0H949Z" />
<glyph unicode="&#xbe;" glyph-name="threequarters" horiz-adv-x="1500" d="M454 0H319L1094 1500H1220L454 0ZM1395 150H1305V0H1200V150H903V235L1145 760L1239 750L1032 300L985 230H1200V433L1305 425V230H1403L1395 150ZM107 1390L115 1470H480V1400Q474
1380 460 1358T426 1314T384 1271T338 1229L272 1192Q277 1193 285 1193T300 1194Q348 1194 390 1182T462 1146T511 1084T529 996Q529 948 511 909T462 838T388 785T299 749T200 727T100 720V800Q141 801 181 807T257 824T323 850T376 886T411 933T424 991Q424
1027 409 1051T367 1089T305 1109T228 1115Q212 1115 193 1114T159 1112V1190Q180 1205 204 1224T252 1263T300 1305T342 1346T374 1381T391 1410L315 1390H107Z" />
<glyph unicode="&#xbf;" glyph-name="questiondown" horiz-adv-x="1100" d="M107 -42Q107 21 124 71T168 162T231 238T304 306T377 375T440 450T485 540T502 652L712 673Q712 584 695 516T651 396T588 303T515 228T442 165T379 103T334 34T317 -50Q317 -103 337
-140T391 -202T472 -237T572 -249Q610 -249 650 -238T729 -206T803 -156T867 -88L1000 -198Q950 -264 893 -306T777 -373T658 -406T547 -415Q462 -415 383 -393T243 -325T144 -209T107 -42ZM738 982Q738 955 728 931T699 889T658 861T607 850Q580 850 556 860T514
889T486 931T475 982Q475 1009 485 1033T513 1076T554 1105T605 1116Q633 1116 657 1105T699 1076T727 1034T738 982Z" />
<glyph unicode="&#xc0;" glyph-name="Agrave" horiz-adv-x="1300" d="M62 0L485 1300L520 1500L737 1520L1235 0H1035L887 450H392L246 0H62ZM639 1360L603 1100L441 600H838L675 1100L639 1360ZM760 1600H610L385 1900L589 1920L760 1600Z" />
<glyph unicode="&#xc1;" glyph-name="Aacute" horiz-adv-x="1300" d="M62 0L485 1300L520 1500L737 1520L1235 0H1035L887 450H392L246 0H62ZM639 1360L603 1100L441 600H838L675 1100L639 1360ZM700 1900L930 1920L690 1600H540L700 1900Z" />
<glyph unicode="&#xc2;" glyph-name="Acircumflex" horiz-adv-x="1300" d="M62 0L485 1300L520 1500L737 1520L1235 0H1035L887 450H392L246 0H62ZM639 1360L603 1100L441 600H838L675 1100L639 1360ZM930 1620H780L680 1772L650 1860L620 1773L519 1620H369L545
1900L745 1920L930 1620Z" />
<glyph unicode="&#xc3;" glyph-name="Atilde" horiz-adv-x="1300" d="M62 0L485 1300L520 1500L737 1520L1235 0H1035L887 450H392L246 0H62ZM639 1360L603 1100L441 600H838L675 1100L639 1360ZM322 1655Q326 1695 341 1733T381 1800T437 1846T504 1864Q543 1864
577 1850T642 1819T703 1788T764 1774Q785 1774 801 1784T828 1810T846 1845T856 1882L952 1878Q949 1834 933 1793T891 1721T831 1670T757 1651Q725 1651 694 1665T631 1695T566 1726T498 1740Q480 1740 466 1732T440 1711T420 1683T408 1652L322 1655Z" />
<glyph unicode="&#xc4;" glyph-name="Adieresis" horiz-adv-x="1300" d="M62 0L485 1300L520 1500L737 1520L1235 0H1035L887 450H392L246 0H62ZM639 1360L603 1100L441 600H838L675 1100L639 1360ZM350 1800H550V1600H350V1800ZM750 1800H950V1600H750V1800Z" />
<glyph unicode="&#xc5;" glyph-name="Aring" horiz-adv-x="1300" d="M62 0L485 1300L520 1500L737 1520L1235 0H1035L887 450H392L246 0H62ZM639 1360L603 1100L441 600H838L675 1100L639 1360ZM642 1879Q691 1879 734 1861T809 1810T860 1734T879 1642Q879 1593
861 1549T811 1472T736 1420T644 1401Q595 1401 552 1420T475 1472T423 1549T404 1642Q404 1691 423 1734T474 1809T549 1860T642 1879ZM643 1518Q668 1518 690 1528T728 1554T753 1593T763 1641Q763 1666 754 1688T728 1726T689 1752T642 1762Q617 1762 595 1753T557
1727T531 1688T521 1641Q521 1616 530 1594T556 1555T595 1528T643 1518Z" />
<glyph unicode="&#xc6;" glyph-name="AE" horiz-adv-x="1700" d="M1645 160L1625 0H775L791 200V450H437L257 0H50L575 1300L619 1500H1610V1340H978L1000 1149V885H1539V740H1000V340L990 160H1645ZM791 599V1106L770 1340L697 1099L498 599H791Z" />
<glyph unicode="&#xc7;" glyph-name="Ccedilla" horiz-adv-x="1300" d="M828 0Q851 -27 869 -59Q885 -86 898 -122T911 -198Q911 -242 893 -280T843 -346T772 -391T687 -407Q637 -407 591 -394T507 -363Q464 -344 426 -318L497 -218Q523 -236 551 -249Q575 -260
604 -269T663 -279Q700 -279 729 -255T758 -189Q758 -156 742 -123T705 -62Q681 -30 652 0H828ZM1116 104Q1034 38 935 11T718 -17Q574 -17 459 45T264 215T142 465T99 770Q99 921 137 1056T255 1294T455 1457T741 1517Q856 1517 958 1481T1133 1375L1043 1268Q995
1300 923 1324T757 1348Q635 1348 550 1302T411 1178T333 995T308 773Q308 704 319 632T352 490T410 360T494 253T605 180T744 153Q789 153 826 157T897 170T966 193T1039 230L1116 104Z" />
<glyph unicode="&#xc8;" glyph-name="Egrave" horiz-adv-x="1200" d="M1045 160L1025 0H175L190 200V1290L160 1500H1010V1340H380L400 1150V885H940V740H400V340L390 160H1045ZM760 1600H610L385 1900L589 1920L760 1600Z" />
<glyph unicode="&#xc9;" glyph-name="Eacute" horiz-adv-x="1200" d="M1045 160L1025 0H175L190 200V1290L160 1500H1010V1340H380L400 1150V885H940V740H400V340L390 160H1045ZM650 1900L880 1920L640 1600H490L650 1900Z" />
<glyph unicode="&#xca;" glyph-name="Ecircumflex" horiz-adv-x="1200" d="M1045 160L1025 0H175L190 200V1290L160 1500H1010V1340H380L400 1150V885H940V740H400V340L390 160H1045ZM930 1620H780L680 1772L650 1860L620 1773L519 1620H369L545 1900L745 1920L930 1620Z" />
<glyph unicode="&#xcb;" glyph-name="Edieresis" horiz-adv-x="1200" d="M1045 160L1025 0H175L190 200V1290L160 1500H1010V1340H380L400 1150V885H940V740H400V340L390 160H1045ZM350 1800H550V1600H350V1800ZM750 1800H950V1600H750V1800Z" />
<glyph unicode="&#xcc;" glyph-name="Igrave" horiz-adv-x="600" d="M190 0V1290L160 1500L400 1520V0H190ZM401 1600H251L26 1900L230 1920L401 1600Z" />
<glyph unicode="&#xcd;" glyph-name="Iacute" horiz-adv-x="600" d="M190 0V1290L160 1500L400 1520V0H190ZM319 1900L549 1920L309 1600H159L319 1900Z" />
<glyph unicode="&#xce;" glyph-name="Icircumflex" horiz-adv-x="600" d="M190 0V1290L160 1500L400 1520V0H190ZM582 1620H432L332 1772L302 1860L272 1773L171 1620H21L197 1900L397 1920L582 1620Z" />
<glyph unicode="&#xcf;" glyph-name="Idieresis" horiz-adv-x="600" d="M190 0V1290L160 1500L400 1520V0H190ZM0 1900H200V1700H0V1900ZM400 1900H600V1700H400V1900Z" />
<glyph unicode="&#xd0;" glyph-name="Eth" horiz-adv-x="1300" d="M0 855H200V1290L170 1500Q201 1503 244 1505T332 1508T422 1510T500 1511Q659 1511 794 1472T1029 1348T1184 1130T1240 810Q1240 664 1212 548T1135 341T1016 187T863 81T685 20T491 0H200V700H0V855ZM410
1150V855H600V700H410V160H430Q575 160 676 190T843 269T947 383T1003 517T1026 654T1030 780Q1030 907 1008 1013T927 1196T763 1315T491 1358Q475 1358 457 1357T423 1354Q405 1352 385 1350L410 1150Z" />
<glyph unicode="&#xd1;" glyph-name="Ntilde" horiz-adv-x="1500" d="M1100 0L485 1028L368 1317L362 1316L400 1000V0H200V1290L170 1500L406 1520L1022 487L1142 173L1148 174L1100 510V1500L1295 1520V0H1100ZM387 1655Q391 1695 406 1733T446 1800T502 1846T569
1864Q608 1864 642 1850T707 1819T768 1788T829 1774Q850 1774 866 1784T893 1810T911 1845T921 1882L1017 1878Q1014 1834 998 1793T956 1721T896 1670T822 1651Q790 1651 759 1665T696 1695T631 1726T563 1740Q545 1740 531 1732T505 1711T485 1683T473 1652L387
1655Z" />
<glyph unicode="&#xd2;" glyph-name="Ograve" horiz-adv-x="1600" d="M800 -17Q642 -17 517 41T305 201T171 444T124 750Q124 915 169 1055T300 1298T513 1459T800 1517Q957 1517 1082 1459T1295 1299T1429 1056T1476 750Q1476 585 1431 445T1300 202T1087 41T800
-17ZM1268 719Q1268 799 1257 876T1222 1023T1160 1152T1070 1255T949 1322T794 1347Q671 1347 584 1300T440 1173T358 993T332 785Q332 704 343 626T379 478T440 348T530 245T651 178T806 153Q887 153 953 175T1070 237T1159 330T1220 446T1256 578T1268 719ZM860
1600H710L485 1900L689 1920L860 1600Z" />
<glyph unicode="&#xd3;" glyph-name="Oacute" horiz-adv-x="1600" d="M800 -17Q642 -17 517 41T305 201T171 444T124 750Q124 915 169 1055T300 1298T513 1459T800 1517Q957 1517 1082 1459T1295 1299T1429 1056T1476 750Q1476 585 1431 445T1300 202T1087 41T800
-17ZM1268 719Q1268 799 1257 876T1222 1023T1160 1152T1070 1255T949 1322T794 1347Q671 1347 584 1300T440 1173T358 993T332 785Q332 704 343 626T379 478T440 348T530 245T651 178T806 153Q887 153 953 175T1070 237T1159 330T1220 446T1256 578T1268 719ZM800
1900L1030 1920L790 1600H640L800 1900Z" />
<glyph unicode="&#xd4;" glyph-name="Ocircumflex" horiz-adv-x="1600" d="M800 -17Q642 -17 517 41T305 201T171 444T124 750Q124 915 169 1055T300 1298T513 1459T800 1517Q957 1517 1082 1459T1295 1299T1429 1056T1476 750Q1476 585 1431 445T1300 202T1087
41T800 -17ZM1268 719Q1268 799 1257 876T1222 1023T1160 1152T1070 1255T949 1322T794 1347Q671 1347 584 1300T440 1173T358 993T332 785Q332 704 343 626T379 478T440 348T530 245T651 178T806 153Q887 153 953 175T1070 237T1159 330T1220 446T1256 578T1268
719ZM1080 1620H930L830 1772L800 1860L770 1773L669 1620H519L695 1900L895 1920L1080 1620Z" />
<glyph unicode="&#xd5;" glyph-name="Otilde" horiz-adv-x="1600" d="M800 -17Q642 -17 517 41T305 201T171 444T124 750Q124 915 169 1055T300 1298T513 1459T800 1517Q957 1517 1082 1459T1295 1299T1429 1056T1476 750Q1476 585 1431 445T1300 202T1087 41T800
-17ZM1268 719Q1268 799 1257 876T1222 1023T1160 1152T1070 1255T949 1322T794 1347Q671 1347 584 1300T440 1173T358 993T332 785Q332 704 343 626T379 478T440 348T530 245T651 178T806 153Q887 153 953 175T1070 237T1159 330T1220 446T1256 578T1268 719ZM487
1655Q491 1695 506 1733T546 1800T602 1846T669 1864Q708 1864 742 1850T807 1819T868 1788T929 1774Q950 1774 966 1784T993 1810T1011 1845T1021 1882L1117 1878Q1114 1834 1098 1793T1056 1721T996 1670T922 1651Q890 1651 859 1665T796 1695T731 1726T663 1740Q645
1740 631 1732T605 1711T585 1683T573 1652L487 1655Z" />
<glyph unicode="&#xd6;" glyph-name="Odieresis" horiz-adv-x="1600" d="M800 -17Q642 -17 517 41T305 201T171 444T124 750Q124 915 169 1055T300 1298T513 1459T800 1517Q957 1517 1082 1459T1295 1299T1429 1056T1476 750Q1476 585 1431 445T1300 202T1087
41T800 -17ZM1268 719Q1268 799 1257 876T1222 1023T1160 1152T1070 1255T949 1322T794 1347Q671 1347 584 1300T440 1173T358 993T332 785Q332 704 343 626T379 478T440 348T530 245T651 178T806 153Q887 153 953 175T1070 237T1159 330T1220 446T1256 578T1268
719ZM500 1800H700V1600H500V1800ZM900 1800H1100V1600H900V1800Z" />
<glyph unicode="&#xd7;" glyph-name="multiply" horiz-adv-x="1600" d="M950 627L1375 203L1251 102L876 477L818 576L800 477L425 102L300 203L726 627L300 1052L425 1153L800 777L858 679L876 777L1251 1153L1375 1052L950 627Z" />
<glyph unicode="&#xd8;" glyph-name="Oslash" horiz-adv-x="1600" d="M331 -100H121L1278 1600H1478L331 -100ZM800 -17Q642 -17 517 41T305 201T171 444T124 750Q124 915 169 1055T300 1298T513 1459T800 1517Q957 1517 1082 1459T1295 1299T1429 1056T1476 750Q1476
585 1431 445T1300 202T1087 41T800 -17ZM1268 719Q1268 799 1257 876T1222 1023T1160 1152T1070 1255T949 1322T794 1347Q671 1347 584 1300T440 1173T358 993T332 785Q332 704 343 626T379 478T440 348T530 245T651 178T806 153Q887 153 953 175T1070 237T1159
330T1220 446T1256 578T1268 719Z" />
<glyph unicode="&#xd9;" glyph-name="Ugrave" horiz-adv-x="1400" d="M1220 1500V523Q1220 387 1179 286T1067 117T897 17T685 -17Q563 -17 469 25T311 145T214 332T180 573V1290L150 1500L385 1520V554Q385 459 410 385T477 259T576 180T695 153Q768 153 827
175T928 241T992 350T1015 504V1500H1220ZM760 1600H610L385 1900L589 1920L760 1600Z" />
<glyph unicode="&#xda;" glyph-name="Uacute" horiz-adv-x="1400" d="M1220 1500V523Q1220 387 1179 286T1067 117T897 17T685 -17Q563 -17 469 25T311 145T214 332T180 573V1290L150 1500L385 1520V554Q385 459 410 385T477 259T576 180T695 153Q768 153 827
175T928 241T992 350T1015 504V1500H1220ZM700 1900L930 1920L690 1600H540L700 1900Z" />
<glyph unicode="&#xdb;" glyph-name="Ucircumflex" horiz-adv-x="1400" d="M1220 1500V523Q1220 387 1179 286T1067 117T897 17T685 -17Q563 -17 469 25T311 145T214 332T180 573V1290L150 1500L385 1520V554Q385 459 410 385T477 259T576 180T695 153Q768 153
827 175T928 241T992 350T1015 504V1500H1220ZM930 1620H780L680 1772L650 1860L620 1773L519 1620H369L545 1900L745 1920L930 1620Z" />
<glyph unicode="&#xdc;" glyph-name="Udieresis" horiz-adv-x="1400" d="M1220 1500V523Q1220 387 1179 286T1067 117T897 17T685 -17Q563 -17 469 25T311 145T214 332T180 573V1290L150 1500L385 1520V554Q385 459 410 385T477 259T576 180T695 153Q768 153 827
175T928 241T992 350T1015 504V1500H1220ZM400 1800H600V1600H400V1800ZM800 1800H1000V1600H800V1800Z" />
<glyph unicode="&#xdd;" glyph-name="Yacute" horiz-adv-x="1200" d="M660 935L948 1500H1140L705 646V0H495V645L59 1500L263 1520L551 954L630 705L660 935ZM600 1900L830 1920L590 1600H440L600 1900Z" />
<glyph unicode="&#xde;" glyph-name="Thorn" horiz-adv-x="1300" d="M180 1500H400V1301H600Q646 1301 697 1292T798 1264T893 1213T974 1135T1029 1028T1050 889Q1050 831 1043 769T1012 650T945 542T830 457Q780 433 717 417T560 401H400V0H200V1299L180 1500ZM400
1151V557H589Q662 557 715 582T802 652T853 757T870 889Q870 951 849 1000T789 1082T694 1133T569 1151H400Z" />
<glyph unicode="&#xdf;" glyph-name="germandbls" horiz-adv-x="1300" d="M850 1148Q850 1194 832 1234T784 1304T713 1351T630 1369Q505 1369 440 1304Q413 1277 407 1241T400 1160V-17L192 0V1111Q192 1305 308 1412Q422 1517 633 1517Q835 1517 941 1405Q963
1382 981 1358T1013 1305T1033 1244T1041 1169Q1041 1060 989 981T850 860L696 816L843 802Q904 784 958 756T1054 686T1118 589T1142 460Q1142 375 1119 308T1057 190T965 103T852 44T727 11T600 0L540 160Q639 160 714 174T840 222T916 311T942 450Q942 525 916
578T843 665T728 714T580 730L510 885Q575 885 636 899T744 945T821 1027T850 1148Z" />
<glyph unicode="&#xe0;" glyph-name="agrave" horiz-adv-x="1100" d="M920 0H710V162L616 50Q599 37 577 25T533 4T488 -11T446 -17Q371 -17 303 6T183 75T101 188T70 344Q70 437 107 505T203 619T334 687T475 710Q532 710 575 704T649 690Q684 681 710 670V705Q710
764 703 811T675 890T613 940T505 957Q451 957 401 950T312 933Q266 922 227 910L155 1044Q199 1064 255 1080Q303 1094 369 1105T515 1117Q630 1117 705 1086T823 999T883 865T900 690V180L920 0ZM710 533Q682 537 650 541Q623 544 588 547T515 550Q459 550 413
539T332 504T279 440T260 345Q260 300 275 263T316 199T377 158T454 143Q473 143 494 148T537 163T580 184T621 208Q666 237 710 274V533ZM660 1200H510L285 1500L489 1520L660 1200Z" />
<glyph unicode="&#xe1;" glyph-name="aacute" horiz-adv-x="1100" d="M920 0H710V162L616 50Q599 37 577 25T533 4T488 -11T446 -17Q371 -17 303 6T183 75T101 188T70 344Q70 437 107 505T203 619T334 687T475 710Q532 710 575 704T649 690Q684 681 710 670V705Q710
764 703 811T675 890T613 940T505 957Q451 957 401 950T312 933Q266 922 227 910L155 1044Q199 1064 255 1080Q303 1094 369 1105T515 1117Q630 1117 705 1086T823 999T883 865T900 690V180L920 0ZM710 533Q682 537 650 541Q623 544 588 547T515 550Q459 550 413
539T332 504T279 440T260 345Q260 300 275 263T316 199T377 158T454 143Q473 143 494 148T537 163T580 184T621 208Q666 237 710 274V533ZM806 1500L1036 1520L796 1200H646L806 1500Z" />
<glyph unicode="&#xe2;" glyph-name="acircumflex" horiz-adv-x="1100" d="M920 0H710V162L616 50Q599 37 577 25T533 4T488 -11T446 -17Q371 -17 303 6T183 75T101 188T70 344Q70 437 107 505T203 619T334 687T475 710Q532 710 575 704T649 690Q684 681 710 670V705Q710
764 703 811T675 890T613 940T505 957Q451 957 401 950T312 933Q266 922 227 910L155 1044Q199 1064 255 1080Q303 1094 369 1105T515 1117Q630 1117 705 1086T823 999T883 865T900 690V180L920 0ZM710 533Q682 537 650 541Q623 544 588 547T515 550Q459 550 413
539T332 504T279 440T260 345Q260 300 275 263T316 199T377 158T454 143Q473 143 494 148T537 163T580 184T621 208Q666 237 710 274V533ZM780 1220H630L530 1372L500 1460L470 1373L369 1220H219L395 1500L595 1520L780 1220Z" />
<glyph unicode="&#xe3;" glyph-name="atilde" horiz-adv-x="1100" d="M920 0H710V162L616 50Q599 37 577 25T533 4T488 -11T446 -17Q371 -17 303 6T183 75T101 188T70 344Q70 437 107 505T203 619T334 687T475 710Q532 710 575 704T649 690Q684 681 710 670V705Q710
764 703 811T675 890T613 940T505 957Q451 957 401 950T312 933Q266 922 227 910L155 1044Q199 1064 255 1080Q303 1094 369 1105T515 1117Q630 1117 705 1086T823 999T883 865T900 690V180L920 0ZM710 533Q682 537 650 541Q623 544 588 547T515 550Q459 550 413
539T332 504T279 440T260 345Q260 300 275 263T316 199T377 158T454 143Q473 143 494 148T537 163T580 184T621 208Q666 237 710 274V533ZM187 1531Q191 1571 206 1609T246 1676T302 1722T369 1740Q408 1740 442 1726T507 1695T568 1664T629 1650Q650 1650 666
1660T693 1686T711 1721T721 1758L817 1754Q814 1710 798 1669T756 1597T696 1546T622 1527Q590 1527 559 1541T496 1571T431 1602T363 1616Q345 1616 331 1608T305 1587T285 1559T273 1528L187 1531Z" />
<glyph unicode="&#xe4;" glyph-name="adieresis" horiz-adv-x="1100" d="M920 0H710V162L616 50Q599 37 577 25T533 4T488 -11T446 -17Q371 -17 303 6T183 75T101 188T70 344Q70 437 107 505T203 619T334 687T475 710Q532 710 575 704T649 690Q684 681 710 670V705Q710
764 703 811T675 890T613 940T505 957Q451 957 401 950T312 933Q266 922 227 910L155 1044Q199 1064 255 1080Q303 1094 369 1105T515 1117Q630 1117 705 1086T823 999T883 865T900 690V180L920 0ZM710 533Q682 537 650 541Q623 544 588 547T515 550Q459 550 413
539T332 504T279 440T260 345Q260 300 275 263T316 199T377 158T454 143Q473 143 494 148T537 163T580 184T621 208Q666 237 710 274V533ZM456 1500H656V1300H456V1500ZM856 1500H1056V1300H856V1500Z" />
<glyph unicode="&#xe5;" glyph-name="aring" horiz-adv-x="1100" d="M920 0H710V162L616 50Q599 37 577 25T533 4T488 -11T446 -17Q371 -17 303 6T183 75T101 188T70 344Q70 437 107 505T203 619T334 687T475 710Q532 710 575 704T649 690Q684 681 710 670V705Q710
764 703 811T675 890T613 940T505 957Q451 957 401 950T312 933Q266 922 227 910L155 1044Q199 1064 255 1080Q303 1094 369 1105T515 1117Q630 1117 705 1086T823 999T883 865T900 690V180L920 0ZM710 533Q682 537 650 541Q623 544 588 547T515 550Q459 550 413
539T332 504T279 440T260 345Q260 300 275 263T316 199T377 158T454 143Q473 143 494 148T537 163T580 184T621 208Q666 237 710 274V533ZM500 1634Q549 1634 592 1616T667 1565T718 1489T737 1397Q737 1348 719 1304T669 1227T594 1175T502 1156Q453 1156 410
1175T333 1227T281 1304T262 1397Q262 1446 281 1489T332 1564T407 1615T500 1634ZM501 1273Q526 1273 548 1283T586 1309T611 1348T621 1396Q621 1421 612 1443T586 1481T547 1507T500 1517Q475 1517 453 1508T415 1482T389 1443T379 1396Q379 1371 388 1349T414
1310T453 1283T501 1273Z" />
<glyph unicode="&#xe6;" glyph-name="ae" horiz-adv-x="1700" d="M1600 638Q1600 607 1598 570T1592 500H900Q900 425 920 360T978 247T1067 171T1185 143Q1249 143 1296 152T1378 175T1433 203T1467 225L1576 129Q1545 97 1508 70T1426 24T1327 -6T1205 -17Q1113
-17 1041 5T912 69Q845 119 802 189L770 124Q761 116 732 93T658 46T560 2T446 -17Q371 -17 303 6T183 75T101 188T70 344Q70 437 107 505T203 619T334 687T475 710Q532 710 575 704T649 690Q684 681 710 670V705Q710 764 703 811T675 890T613 940T505 957Q451
957 401 950T312 933Q266 922 227 910L155 1044Q199 1064 255 1080Q303 1094 369 1105T515 1117Q648 1117 726 1077T846 964Q905 1033 988 1075T1180 1117Q1288 1117 1367 1082T1498 984T1575 833T1600 638ZM710 533Q682 537 650 541Q623 544 588 547T515 550Q459
550 413 539T332 504T279 440T260 345Q260 300 275 263T316 199T377 158T454 143Q473 143 494 148T537 163T580 184T621 208Q666 237 710 274V533ZM1410 650Q1411 661 1411 672T1412 694Q1412 751 1399 799T1360 882T1292 938T1195 958Q1128 958 1081 937T1001
882T949 808T919 732L867 623L1045 650H1410Z" />
<glyph unicode="&#xe7;" glyph-name="ccedilla" horiz-adv-x="1042" d="M664 0Q687 -27 705 -59Q721 -86 734 -122T747 -198Q747 -242 729 -280T679 -346T608 -391T523 -407Q473 -407 427 -394T343 -363Q300 -344 262 -318L333 -218Q359 -236 387 -249Q411 -260
440 -269T499 -279Q536 -279 565 -255T594 -189Q594 -156 578 -123T541 -62Q517 -30 488 0H664ZM801 878Q762 913 709 935T598 957Q514 957 455 926T360 840T306 715T289 564Q289 482 304 408T357 276T455 186T609 152Q686 152 739 170T822 208L894 67Q838 29 764
6T595 -17Q470 -17 376 32T220 164T126 354T94 577Q94 681 124 778T217 951T375 1071T600 1117Q692 1117 764 1089T900 991L801 878Z" />
<glyph unicode="&#xe8;" glyph-name="egrave" horiz-adv-x="1100" d="M966 129Q935 97 898 70T816 24T717 -6T595 -17Q462 -17 368 30T215 156T128 337T100 550Q100 621 113 690T152 823T217 940T308 1033T425 1094T570 1117Q678 1117 757 1082T888 984T965 833T990
638Q990 607 988 570T982 500H290Q290 425 310 360T368 247T457 171T575 143Q639 143 686 152T768 175T823 203T857 225L966 129ZM800 650Q801 661 801 672T802 694Q802 751 789 799T750 882T682 938T585 958Q518 958 471 937T391 882T339 808T309 732L257 623L435
650H800ZM660 1200H510L285 1500L489 1520L660 1200Z" />
<glyph unicode="&#xe9;" glyph-name="eacute" horiz-adv-x="1100" d="M966 129Q935 97 898 70T816 24T717 -6T595 -17Q462 -17 368 30T215 156T128 337T100 550Q100 621 113 690T152 823T217 940T308 1033T425 1094T570 1117Q678 1117 757 1082T888 984T965 833T990
638Q990 607 988 570T982 500H290Q290 425 310 360T368 247T457 171T575 143Q639 143 686 152T768 175T823 203T857 225L966 129ZM800 650Q801 661 801 672T802 694Q802 751 789 799T750 882T682 938T585 958Q518 958 471 937T391 882T339 808T309 732L257 623L435
650H800ZM600 1500L830 1520L590 1200H440L600 1500Z" />
<glyph unicode="&#xea;" glyph-name="ecircumflex" horiz-adv-x="1100" d="M966 129Q935 97 898 70T816 24T717 -6T595 -17Q462 -17 368 30T215 156T128 337T100 550Q100 621 113 690T152 823T217 940T308 1033T425 1094T570 1117Q678 1117 757 1082T888 984T965
833T990 638Q990 607 988 570T982 500H290Q290 425 310 360T368 247T457 171T575 143Q639 143 686 152T768 175T823 203T857 225L966 129ZM800 650Q801 661 801 672T802 694Q802 751 789 799T750 882T682 938T585 958Q518 958 471 937T391 882T339 808T309 732L257
623L435 650H800ZM880 1220H730L630 1372L600 1460L570 1373L469 1220H319L495 1500L695 1520L880 1220Z" />
<glyph unicode="&#xeb;" glyph-name="edieresis" horiz-adv-x="1100" d="M966 129Q935 97 898 70T816 24T717 -6T595 -17Q462 -17 368 30T215 156T128 337T100 550Q100 621 113 690T152 823T217 940T308 1033T425 1094T570 1117Q678 1117 757 1082T888 984T965
833T990 638Q990 607 988 570T982 500H290Q290 425 310 360T368 247T457 171T575 143Q639 143 686 152T768 175T823 203T857 225L966 129ZM800 650Q801 661 801 672T802 694Q802 751 789 799T750 882T682 938T585 958Q518 958 471 937T391 882T339 808T309 732L257
623L435 650H800ZM300 1500H500V1300H300V1500ZM700 1500H900V1300H700V1500Z" />
<glyph unicode="&#xec;" glyph-name="igrave" horiz-adv-x="600" d="M390 0H200V1055L390 1075V0ZM460 1200H310L85 1500L289 1520L460 1200Z" />
<glyph unicode="&#xed;" glyph-name="iacute" horiz-adv-x="600" d="M390 0H200V1055L390 1075V0ZM350 1500L580 1520L340 1200H190L350 1500Z" />
<glyph unicode="&#xee;" glyph-name="icircumflex" horiz-adv-x="600" d="M390 0H200V1055L390 1075V0ZM581 1220H431L331 1372L301 1460L271 1373L170 1220H20L196 1500L396 1520L581 1220Z" />
<glyph unicode="&#xef;" glyph-name="idieresis" horiz-adv-x="600" d="M390 0H200V1055L390 1075V0ZM0 1500H200V1300H0V1500ZM400 1500H600V1300H400V1500Z" />
<glyph unicode="&#xf0;" glyph-name="eth" horiz-adv-x="1300" d="M440 1165L652 1344L533 1323Q483 1349 435 1362T332 1375Q319 1375 310 1374T297 1372L272 1515Q288 1517 303 1517T333 1517Q443 1517 540 1487T721 1402L859 1519L956 1404L772 1249H889Q941
1187 982 1115T1052 961T1095 793T1110 617Q1110 563 1100 495T1068 357T1007 219T914 100T783 15T610 -17Q502 -17 416 18T270 117T178 269T146 466Q146 577 178 662T268 806T408 894T587 924Q655 924 724 907T853 844L936 727Q927 789 907 852T857 974T788 1089T704
1191L537 1050L440 1165ZM914 604Q896 630 863 658T787 709T696 748T602 764Q533 764 481 740T395 673T343 573T326 448Q326 382 347 326T407 230T497 166T609 143Q670 143 718 164T803 221T864 305T899 409Q910 464 912 509T914 604Z" />
<glyph unicode="&#xf1;" glyph-name="ntilde" horiz-adv-x="1200" d="M390 0H200V1100L390 1120V937L451 1044Q469 1056 497 1069T559 1092T634 1110T715 1117Q794 1117 848 1092T937 1018T985 902T1000 750V0H810V750Q810 804 803 843T777 907T727 945T650 957Q616
957 581 947T513 920T448 883T390 844V0ZM287 1531Q291 1571 306 1609T346 1676T402 1722T469 1740Q508 1740 542 1726T607 1695T668 1664T729 1650Q750 1650 766 1660T793 1686T811 1721T821 1758L917 1754Q914 1710 898 1669T856 1597T796 1546T722 1527Q690
1527 659 1541T596 1571T531 1602T463 1616Q445 1616 431 1608T405 1587T385 1559T373 1528L287 1531Z" />
<glyph unicode="&#xf2;" glyph-name="ograve" horiz-adv-x="1200" d="M599 -17Q488 -17 397 26T239 146T137 327T100 553Q100 674 135 777T235 956T392 1074T599 1117Q710 1117 802 1075T960 957T1063 778T1100 553Q1100 432 1065 328T964 147T806 27T599 -17ZM910
526Q910 607 893 685T837 824T739 924T595 962Q515 962 457 929T362 841T308 716T290 572Q290 491 307 413T362 274T459 176T603 138Q682 138 740 171T836 258T892 383T910 526ZM787 1200H637L412 1500L616 1520L787 1200Z" />
<glyph unicode="&#xf3;" glyph-name="oacute" horiz-adv-x="1200" d="M599 -17Q488 -17 397 26T239 146T137 327T100 553Q100 674 135 777T235 956T392 1074T599 1117Q710 1117 802 1075T960 957T1063 778T1100 553Q1100 432 1065 328T964 147T806 27T599 -17ZM910
526Q910 607 893 685T837 824T739 924T595 962Q515 962 457 929T362 841T308 716T290 572Q290 491 307 413T362 274T459 176T603 138Q682 138 740 171T836 258T892 383T910 526ZM600 1500L830 1520L590 1200H440L600 1500Z" />
<glyph unicode="&#xf4;" glyph-name="ocircumflex" horiz-adv-x="1200" d="M599 -17Q488 -17 397 26T239 146T137 327T100 553Q100 674 135 777T235 956T392 1074T599 1117Q710 1117 802 1075T960 957T1063 778T1100 553Q1100 432 1065 328T964 147T806 27T599
-17ZM910 526Q910 607 893 685T837 824T739 924T595 962Q515 962 457 929T362 841T308 716T290 572Q290 491 307 413T362 274T459 176T603 138Q682 138 740 171T836 258T892 383T910 526ZM880 1220H730L630 1372L600 1460L570 1373L469 1220H319L495 1500L695 1520L880
1220Z" />
<glyph unicode="&#xf5;" glyph-name="otilde" horiz-adv-x="1200" d="M599 -17Q488 -17 397 26T239 146T137 327T100 553Q100 674 135 777T235 956T392 1074T599 1117Q710 1117 802 1075T960 957T1063 778T1100 553Q1100 432 1065 328T964 147T806 27T599 -17ZM910
526Q910 607 893 685T837 824T739 924T595 962Q515 962 457 929T362 841T308 716T290 572Q290 491 307 413T362 274T459 176T603 138Q682 138 740 171T836 258T892 383T910 526ZM337 1275Q341 1315 356 1353T396 1420T452 1466T519 1484Q558 1484 592 1470T657
1439T718 1408T779 1394Q800 1394 816 1404T843 1430T861 1465T871 1502L967 1498Q964 1454 948 1413T906 1341T846 1290T772 1271Q740 1271 709 1285T646 1315T581 1346T513 1360Q495 1360 481 1352T455 1331T435 1303T423 1272L337 1275Z" />
<glyph unicode="&#xf6;" glyph-name="odieresis" horiz-adv-x="1200" d="M599 -17Q488 -17 397 26T239 146T137 327T100 553Q100 674 135 777T235 956T392 1074T599 1117Q710 1117 802 1075T960 957T1063 778T1100 553Q1100 432 1065 328T964 147T806 27T599 -17ZM910
526Q910 607 893 685T837 824T739 924T595 962Q515 962 457 929T362 841T308 716T290 572Q290 491 307 413T362 274T459 176T603 138Q682 138 740 171T836 258T892 383T910 526ZM300 1500H500V1300H300V1500ZM700 1500H900V1300H700V1500Z" />
<glyph unicode="&#xf7;" glyph-name="divide" horiz-adv-x="1100" d="M441 307Q441 329 449 348T473 383T507 406T549 415Q571 415 590 407T625 383T648 349T657 307Q657 285 649 265T626 230T592 206T550 197Q528 197 508 206T473 230T450 265T441 307ZM441 920Q441
942 449 961T473 996T507 1019T549 1028Q571 1028 590 1020T625 996T648 962T657 920Q657 898 649 878T626 843T592 819T550 810Q528 810 508 819T473 843T450 878T441 920ZM100 700H1000V545H100V700Z" />
<glyph unicode="&#xf8;" glyph-name="oslash" horiz-adv-x="1200" d="M311 -100H101L901 1209H1101L311 -100ZM599 -17Q488 -17 397 26T239 146T137 327T100 553Q100 674 135 777T235 956T392 1074T599 1117Q710 1117 802 1075T960 957T1063 778T1100 553Q1100
432 1065 328T964 147T806 27T599 -17ZM910 526Q910 607 893 685T837 824T739 924T595 962Q515 962 457 929T362 841T308 716T290 572Q290 491 307 413T362 274T459 176T603 138Q682 138 740 171T836 258T892 383T910 526Z" />
<glyph unicode="&#xf9;" glyph-name="ugrave" horiz-adv-x="1200" d="M810 1100L1000 1120V0H810V163L749 56Q731 44 707 31T651 8T583 -10T505 -17Q425 -17 368 12T273 93T218 216T200 372V1100L390 1120V372Q390 264 433 204T570 143Q604 143 637 154T701 182T759
219T810 258V1100ZM787 1200H637L412 1500L616 1520L787 1200Z" />
<glyph unicode="&#xfa;" glyph-name="uacute" horiz-adv-x="1200" d="M810 1100L1000 1120V0H810V163L749 56Q731 44 707 31T651 8T583 -10T505 -17Q425 -17 368 12T273 93T218 216T200 372V1100L390 1120V372Q390 264 433 204T570 143Q604 143 637 154T701 182T759
219T810 258V1100ZM821 1500L1051 1520L811 1200H661L821 1500Z" />
<glyph unicode="&#xfb;" glyph-name="ucircumflex" horiz-adv-x="1200" d="M810 1100L1000 1120V0H810V163L749 56Q731 44 707 31T651 8T583 -10T505 -17Q425 -17 368 12T273 93T218 216T200 372V1100L390 1120V372Q390 264 433 204T570 143Q604 143 637 154T701
182T759 219T810 258V1100ZM880 1220H730L630 1372L600 1460L570 1373L469 1220H319L495 1500L695 1520L880 1220Z" />
<glyph unicode="&#xfc;" glyph-name="udieresis" horiz-adv-x="1200" d="M810 1100L1000 1120V0H810V163L749 56Q731 44 707 31T651 8T583 -10T505 -17Q425 -17 368 12T273 93T218 216T200 372V1100L390 1120V372Q390 264 433 204T570 143Q604 143 637 154T701
182T759 219T810 258V1100ZM300 1500H500V1300H300V1500ZM700 1500H900V1300H700V1500Z" />
<glyph unicode="&#xfd;" glyph-name="yacute" horiz-adv-x="1100" d="M602 364L871 1100L1051 1117L637 -17Q606 -101 570 -184T487 -332T386 -439T262 -480Q211 -480 162 -460T72 -403L145 -296Q162 -308 184 -318T230 -328Q263 -328 294 -303T353 -237T406 -147T451
-47L34 1100L224 1117L498 364L550 132L602 364ZM771 1500L1001 1520L761 1200H611L771 1500Z" />
<glyph unicode="&#xfe;" glyph-name="thorn" horiz-adv-x="1200" d="M609 -17Q498 -17 406 26Q348 54 300 95V-400H100V1500L300 1520V1010Q346 1048 402 1074Q495 1117 609 1117Q720 1117 812 1075T970 957T1073 778T1110 553Q1110 432 1075 328T974 147T816
27T609 -17ZM920 526Q920 607 903 685T847 824T749 924T605 962Q525 962 467 929T372 841T317 716Q301 653 300 586V572Q300 491 317 413T372 274T469 176T613 138Q692 138 750 171T846 258T902 383T920 526Z" />
<glyph unicode="&#xff;" glyph-name="ydieresis" horiz-adv-x="1100" d="M602 364L871 1100L1051 1117L637 -17Q606 -101 570 -184T487 -332T386 -439T262 -480Q211 -480 162 -460T72 -403L145 -296Q162 -308 184 -318T230 -328Q263 -328 294 -303T353 -237T406
-147T451 -47L34 1100L224 1117L498 364L550 132L602 364ZM506 1500H706V1300H506V1500ZM906 1500H1106V1300H906V1500Z" />
<glyph unicode="&#x2013;" glyph-name="endash" horiz-adv-x="1100" d="M0 600H1000V446H0V600Z" />
<glyph unicode="&#x2014;" glyph-name="emdash" horiz-adv-x="2100" d="M0 600H2000V446H0V600Z" />
<glyph unicode="&#x2018;" glyph-name="quoteleft" horiz-adv-x="700" d="M424 1095Q424 1070 414 1048T387 1010T348 984T300 974Q275 974 253 982T213 1008T186 1050T175 1109Q175 1153 180 1195T203 1280T252 1367T336 1460L380 1440Q361 1403 346 1364Q333
1331 323 1292T312 1216Q333 1215 353 1207T389 1183T414 1146T424 1095Z" />
<glyph unicode="&#x2019;" glyph-name="quoteright" horiz-adv-x="700" d="M176 1305Q176 1330 186 1352T213 1390T252 1416T300 1426Q325 1426 347 1418T387 1392T414 1350T425 1291Q425 1247 420 1205T397 1120T348 1033T264 940L220 960Q239 997 254 1036Q267
1069 277 1108T288 1184Q267 1185 247 1193T211 1217T186 1254T176 1305Z" />
<glyph unicode="&#x201a;" glyph-name="quotesinglbase" horiz-adv-x="700" d="M176 105Q176 130 186 152T213 190T252 216T300 226Q325 226 347 218T387 192T414 150T425 91Q425 47 420 5T397 -80T348 -167T264 -260L220 -240Q239 -203 254 -164Q267 -131 277
-92T288 -16Q267 -15 247 -7T211 17T186 54T176 105Z" />
<glyph unicode="&#x201c;" glyph-name="quotedblleft" horiz-adv-x="1000" d="M424 1095Q424 1070 414 1048T387 1010T348 984T300 974Q275 974 253 982T213 1008T186 1050T175 1109Q175 1153 180 1195T203 1280T252 1367T336 1460L380 1440Q361 1403 346 1364Q333
1331 323 1292T312 1216Q333 1215 353 1207T389 1183T414 1146T424 1095ZM824 1095Q824 1070 814 1048T787 1010T748 984T700 974Q675 974 653 982T613 1008T586 1050T575 1109Q575 1153 580 1195T603 1280T652 1367T736 1460L780 1440Q761 1403 746 1364Q733 1331
723 1292T712 1216Q733 1215 753 1207T789 1183T814 1146T824 1095Z" />
<glyph unicode="&#x201d;" glyph-name="quotedblright" horiz-adv-x="1000" d="M176 1305Q176 1330 186 1352T213 1390T252 1416T300 1426Q325 1426 347 1418T387 1392T414 1350T425 1291Q425 1247 420 1205T397 1120T348 1033T264 940L220 960Q239 997 254 1036Q267
1069 277 1108T288 1184Q267 1185 247 1193T211 1217T186 1254T176 1305ZM576 1305Q576 1330 586 1352T613 1390T652 1416T700 1426Q725 1426 747 1418T787 1392T814 1350T825 1291Q825 1247 820 1205T797 1120T748 1033T664 940L620 960Q639 997 654 1036Q667
1069 677 1108T688 1184Q667 1185 647 1193T611 1217T586 1254T576 1305Z" />
<glyph unicode="&#x201e;" glyph-name="quotedblbase" horiz-adv-x="1000" d="M176 105Q176 130 186 152T213 190T252 216T300 226Q325 226 347 218T387 192T414 150T425 91Q425 47 420 5T397 -80T348 -167T264 -260L220 -240Q239 -203 254 -164Q267 -131 277
-92T288 -16Q267 -15 247 -7T211 17T186 54T176 105ZM576 105Q576 130 586 152T613 190T652 216T700 226Q725 226 747 218T787 192T814 150T825 91Q825 47 820 5T797 -80T748 -167T664 -260L620 -240Q639 -203 654 -164Q667 -131 677 -92T688 -16Q667 -15 647 -7T611
17T586 54T576 105Z" />
<glyph unicode="&#x2022;" glyph-name="bullet" horiz-adv-x="1200" d="M298 807Q298 867 321 920T385 1013T478 1076T592 1100Q652 1100 705 1077T799 1014T862 921T886 807Q886 747 863 693T801 597T708 532T595 508Q535 508 481 532T387 597T322 692T298 807Z" />
<glyph unicode="&#x2039;" glyph-name="guilsinglleft" horiz-adv-x="900" d="M670 1026L720 901L395 610L257 550L394 490L722 201L668 66L200 478V617L670 1026Z" />
<glyph unicode="&#x203a;" glyph-name="guilsinglright" horiz-adv-x="900" d="M700 617V478L232 66L178 201L506 490L643 550L505 610L180 901L230 1026L700 617Z" />
</font>
</defs>
</svg>
